<?xml version="1.0" encoding="UTF-8" standalone="no"?>
<svg
   xmlns:dc="http://purl.org/dc/elements/1.1/"
   xmlns:cc="http://creativecommons.org/ns#"
   xmlns:rdf="http://www.w3.org/1999/02/22-rdf-syntax-ns#"
   xmlns:svg="http://www.w3.org/2000/svg"
   xmlns="http://www.w3.org/2000/svg"
   xmlns:sodipodi="http://sodipodi.sourceforge.net/DTD/sodipodi-0.dtd"
   xmlns:inkscape="http://www.inkscape.org/namespaces/inkscape"
   version="1.1"
   x="0px"
   y="0px"
   viewBox="0 0 503.14266 305.25721"
   xml:space="preserve"
   id="svg1046"
   sodipodi:docname="test.svg"
   width="503.14264"
   height="305.2572"
   inkscape:version="1.0.1 (3bc2e813f5, 2020-09-07)"><metadata
   id="metadata1052"><rdf:RDF><cc:Work
       rdf:about=""><dc:format>image/svg+xml</dc:format><dc:type
         rdf:resource="http://purl.org/dc/dcmitype/StillImage" /><dc:title></dc:title></cc:Work></rdf:RDF></metadata><defs
   id="defs1050" /><sodipodi:namedview
   pagecolor="#ffffff"
   bordercolor="#666666"
   borderopacity="1"
   objecttolerance="10"
   gridtolerance="10"
   guidetolerance="10"
   inkscape:pageopacity="0"
   inkscape:pageshadow="2"
   inkscape:window-width="1297"
   inkscape:window-height="704"
   id="namedview1048"
   showgrid="false"
   inkscape:zoom="0.64747863"
   inkscape:cx="109.0178"
   inkscape:cy="175.34869"
   inkscape:window-x="69"
   inkscape:window-y="27"
   inkscape:window-maximized="1"
   inkscape:current-layer="Layer_1" />
<style
   type="text/css"
   id="style2">
	.st0{display:none;}
	.st1{fill:#010202;}
	.st2{fill:#FFFFFF;}
	.st3{fill:#FDFDFD;}
	.st4{fill:url(#SVGID_1_);}
	.st5{fill:url(#SVGID_2_);}
	.st6{fill:url(#SVGID_3_);}
	.st7{fill:url(#SVGID_4_);}
	.st8{fill:url(#SVGID_5_);}
	.st9{fill:url(#SVGID_6_);}
	.st10{fill:url(#SVGID_7_);}
	.st11{fill:url(#SVGID_8_);}
	.st12{fill:url(#SVGID_9_);}
	.st13{fill:#575756;}
	.st14{fill:url(#SVGID_10_);}
	.st15{fill:url(#SVGID_11_);}
	.st16{fill:url(#SVGID_12_);}
	.st17{fill:url(#SVGID_13_);}
	.st18{fill:url(#SVGID_14_);}
	.st19{fill:url(#SVGID_15_);}
	.st20{fill:url(#SVGID_16_);}
	.st21{fill:url(#SVGID_17_);}
	.st22{fill:url(#SVGID_18_);}
	.st23{fill:url(#SVGID_19_);}
	.st24{fill:url(#SVGID_20_);}
	.st25{fill:url(#SVGID_21_);}
	.st26{fill:url(#SVGID_22_);}
	.st27{fill:url(#SVGID_23_);}
	.st28{fill:url(#SVGID_24_);}
	.st29{fill:url(#SVGID_25_);}
	.st30{fill:url(#SVGID_26_);}
	.st31{fill:url(#SVGID_27_);}
	.st32{fill:url(#SVGID_28_);}
	.st33{fill:url(#SVGID_29_);}
	.st34{fill:url(#SVGID_30_);}
	.st35{fill:url(#SVGID_31_);}
	.st36{fill:url(#SVGID_32_);}
	.st37{fill:url(#SVGID_33_);}
	.st38{fill:url(#SVGID_34_);}
	.st39{fill:url(#SVGID_35_);}
	.st40{fill:url(#SVGID_36_);}
</style>
<g
   id="Layer_2"
   class="st0"
   transform="translate(-161.56,-74.552806)">
</g>
<g
   id="Layer_1"
   transform="translate(-161.56,-74.552806)">
	<g
   id="g7">
		
			<text
   transform="translate(-812.8403,-391.3857)"
   class="st1"
   style="font-size:75.6455px;font-family:Impact;letter-spacing:15"
   id="text5">INFORMÁTICA SG</text>
	</g>
	<g
   id="g71">
		<g
   id="g27">
			<path
   d="m -419.9,-697.19 c 0,-5.45 -7.06,-7.61 -10.13,-3.12 -1.28,1.89 -1.28,4.37 0,6.25 3.07,4.49 10.13,2.31 10.13,-3.13 z"
   id="path9" />
			<path
   d="m -514.42,-670.28 c 11.76,0 49.89,0 95.66,0 3.24,-12.44 20.87,-12.46 24.11,0 38,0 78.77,0 113,0 -8.93,-65.96 -83.46,-103.37 -142.26,-68.63 -15.55,-31.27 -47.8,-52.77 -85.08,-52.77 -53.68,0 -97.22,44.62 -94.88,99.16 -17.35,0 -33.33,5.29 -46.5,14.28 h 38.08 c 1.4,-5.38 6.25,-9.37 12.05,-9.37 6.89,0 12.5,5.6 12.5,12.5 0,6.89 -5.61,12.49 -12.5,12.49 -5.8,0 -10.65,-4 -12.05,-9.37 h -46.09 c -7.13,6.29 -13.14,13.77 -17.73,22.14 h 85.84 c 14.08,-9.61 59.45,-40.57 73.94,-50.46 27.34,0 52.29,0 78.84,0 1.4,-5.37 6.25,-9.37 12.05,-9.37 6.89,0 12.5,5.61 12.5,12.5 0,6.89 -5.61,12.5 -12.5,12.5 -5.81,0 -10.66,-4 -12.05,-9.37 h -76.91 c -10.83,7.39 -63.25,43.17 -73.94,50.47 -17.61,0 -61.79,0 -90.85,0 -2.54,5.74 -4.44,11.8 -5.61,18.12 h 107.09 c 57.58,-40.78 51.67,-36.59 63.29,-44.82 z"
   id="path11" />
			<path
   d="m -594.7,-675.11 c 0,-5.46 -7.07,-7.61 -10.13,-3.12 -1.29,1.89 -1.29,4.36 0,6.25 3.07,4.49 10.13,2.31 10.13,-3.13 z"
   id="path13" />
			<path
   d="m -417.37,-562.2 c -3.73,-1.38 -7.46,1.42 -7.46,5.19 0,3.06 2.48,5.55 5.55,5.55 6.14,0 7.69,-8.61 1.91,-10.74 z"
   id="path15" />
			<path
   d="m -610.8,-595.58 c 0,5.45 7.07,7.62 10.13,3.13 1.29,-1.89 1.29,-4.36 0,-6.25 -3.06,-4.49 -10.13,-2.32 -10.13,3.12 z"
   id="path17" />
			<path
   d="m -348.57,-644.06 c -3.06,0 -5.55,2.48 -5.55,5.55 0,3.07 2.48,5.55 5.55,5.55 3.07,0 5.55,-2.48 5.55,-5.55 0,-3.06 -2.48,-5.55 -5.55,-5.55 z"
   id="path19" />
			<path
   d="m -418.76,-664.04 c -40.99,0 -74.96,0 -93.67,0 -3.18,2.25 -60.2,42.6 -63.3,44.8 -36.97,0 -73.39,0 -110.01,0 -3.81,35.59 15.5,68.13 46,82.84 11.32,0 361.89,0 379,0 15.81,-12.03 24.54,-28.61 26.92,-45.8 h -144.6 c -26.15,18.56 -29.23,20.75 -29.23,20.75 3.21,8.4 -3.13,16.93 -11.64,16.93 -6.89,0 -12.5,-5.61 -12.5,-12.5 0,-10.55 12.32,-16.42 20.5,-9.51 6.31,-4.48 12.35,-8.77 30.87,-21.91 16.32,0 103.53,0 147.17,0 0.31,-6.46 -0.24,-12.94 -1.66,-19.23 h -195.63 c -6.63,4.97 -21.24,15.94 -31.06,23.32 3.41,8.26 -2.72,17.25 -11.55,17.25 -6.89,0 -12.5,-5.6 -12.5,-12.5 0,-10.36 11.98,-16.32 20.25,-9.72 4.51,-3.39 13.21,-9.92 32.77,-24.6 16.46,0 149.78,0 195.98,0 -2.49,-7.69 -6.3,-14.98 -11.36,-21.47 -20.62,0 -53.29,0 -88.52,0 0,0 0,-0.01 0,-0.01 -3.23,12.46 -20.88,12.48 -24.12,0 0,0.01 0,0.01 0,0.01 -61.5,0 -123.98,0 -138.98,0 -13.41,9.48 -47.24,33.39 -60.75,42.93 -16.52,0 -21.6,0 -32.84,0 -1.4,5.37 -6.25,9.37 -12.05,9.37 -6.89,0 -12.5,-5.6 -12.5,-12.5 0,-6.89 5.61,-12.5 12.5,-12.5 5.8,0 10.65,4 12.05,9.37 h 30.85 c 22.04,-15.57 39.17,-27.68 60.75,-42.93 22.57,0 82.81,0 140.97,0 0,0.01 0,0.01 0,0.01 3.23,-12.46 20.88,-12.48 24.12,0 0,0 0,-0.01 0,-0.01 32.74,0 62.93,0 82.99,0 -7.26,-7.27 -16.35,-13.13 -27.21,-16.79 -0.03,-1.89 -0.14,-3.76 -0.27,-5.61 -38.58,0 -77.97,0 -113.65,0 -3.22,12.5 -20.85,12.44 -24.09,0.01 z"
   id="path21" />
			<path
   d="m -411.29,-670.28 c -1.29,1.89 -1.28,4.37 0,6.25 2.21,3.24 6.96,3.23 9.17,0 1.29,-1.89 1.29,-4.36 0,-6.25 -2.21,-3.24 -6.96,-3.23 -9.17,0 z"
   id="path23" />
			<path
   d="m -471.37,-584.83 c -3.72,-1.26 -7.32,1.55 -7.32,5.24 0,3.06 2.48,5.55 5.55,5.55 6.28,-0.01 7.63,-8.8 1.77,-10.79 z"
   id="path25" />
		</g>
		<path
   d="m -257.18,-675.3 c -11.12,-71.78 -86.06,-120.02 -157.38,-95.37 -65.59,-84.2 -203.46,-44.38 -217.77,51.59 -45.43,16.08 -78.93,58.4 -78.93,108.68 0,40.86 23.79,78.75 60.61,96.52 l 5.15,2.48 h 393.14 l 6.71,-5.11 c 56.24,-42.8 46.75,-127.12 -11.53,-158.79 z m 3.96,148.85 -3.35,2.55 h -386.07 c -37.6,-18.14 -56.12,-52.27 -56.12,-86.5 0,-48 37.08,-89.11 77.84,-98.03 6.45,-95.1 144.94,-134.59 201.86,-47.05 67.4,-29.87 143.57,16.48 150.31,88.37 55.56,25.14 66.04,102.22 15.53,140.66 z"
   id="path29" />
		<path
   class="st1"
   d="m -644.9,-514.03 -4.6,-2.22 c -85.33,-41.17 -77.59,-166.51 19.55,-200.87 14.26,-95.7 148.43,-135.16 214.48,-50.44 72.07,-24.92 144.7,21.64 155.89,93.96 59.3,32.21 66.19,114.01 12.34,155.01 l -6,4.57 H -644.9 Z m 21.5,-196.52 c -38.68,9.46 -78,48.98 -78,100.16 0,37.07 20.26,70.87 58.15,89.14 h 387.56 l 4.06,-3.09 c 51.34,-39.07 41.91,-117.71 -14.66,-144.51 -7.66,-70.97 -82.93,-118.83 -151.8,-89.9 -58.77,-86.74 -197.05,-46.97 -205.31,48.2 z"
   id="path31" />
		<g
   id="g69">
			<g
   id="g35">
				<path
   class="st1"
   d="m -425.51,-692.96 c -3.32,0 -5.35,-3.8 -3.43,-6.61 2.35,-3.45 7.73,-1.73 7.73,2.38 0,2.67 -2.18,4.23 -4.3,4.23 z"
   id="path33" />
			</g>
			<g
   id="g39">
				<path
   class="st1"
   d="m -683.21,-626.8 c 1.1,-5.31 2.74,-10.51 4.88,-15.49 h 90.39 c 0,0 62.41,-42.6 73.94,-50.47 h 75.53 c 5.01,14.72 26.85,11.09 26.85,-4.44 0,-15.52 -21.83,-19.17 -26.85,-4.44 h -78.27 c 0,0 -59.49,40.6 -73.94,50.46 h -83.18 c 4.27,-7.29 9.63,-13.84 15.97,-19.5 h 44.61 c 5.01,14.71 26.85,11.09 26.85,-4.44 0,-15.52 -21.84,-19.17 -26.85,-4.44 h -32.62 c 13.66,-8.27 27.88,-11.65 43.39,-11.65 -2.48,-57.5 42.31,-99.16 93.51,-99.16 34.28,0 67.07,18.18 84.54,53.31 60.17,-35.54 131.7,2.34 141.29,65.46 h -110.5 c -4.16,-12.48 -21.92,-12.47 -26.07,0 h -95.1 l -63.3,44.8 z"
   id="path37" />
			</g>
			<g
   id="g43">
				<path
   class="st1"
   d="m -603.74,-677.49 c 2.36,-3.45 7.73,-1.74 7.73,2.38 0,1.55 -0.72,2.53 -1.32,3.08 -3.79,3.46 -9.21,-1.36 -6.41,-5.46 z"
   id="path41" />
			</g>
			<g
   id="g47">
				<path
   class="st1"
   d="m -423.52,-557.01 c 0,-2.33 1.88,-4.23 4.19,-4.23 2.54,0 4.69,2.13 4.18,4.97 -0.92,5.16 -8.37,4.34 -8.37,-0.74 z"
   id="path45" />
			</g>
			<g
   id="g51">
				<path
   class="st1"
   d="m -605.18,-591.35 c -5.71,0 -5.72,-8.46 0,-8.46 1.4,0 2.62,0.66 3.43,1.85 1.91,2.81 -0.12,6.61 -3.43,6.61 z"
   id="path49" />
			</g>
			<g
   id="g55">
				<path
   class="st1"
   d="m -348.57,-634.28 c -2.33,0 -4.23,-1.9 -4.23,-4.23 0,-2.33 1.9,-4.23 4.23,-4.23 2.33,0 4.23,1.9 4.23,4.23 0,2.33 -1.9,4.23 -4.23,4.23 z"
   id="path53" />
			</g>
			<g
   id="g59">
				<path
   class="st1"
   d="m -639.43,-537.7 c -30.19,-14.7 -48.2,-46.79 -45.11,-80.21 h 109.23 l 63.3,-44.8 h 92.27 c 4.15,12.46 21.92,12.49 26.07,0 h 111.43 c 0.17,2.67 0.18,3.93 0.2,5.24 9.33,3.14 17.5,7.49 25.23,14.52 h -78.72 c -4.16,-12.48 -21.92,-12.47 -26.07,0 H -502 l -60.75,42.93 h -29.45 c -5.01,-14.72 -26.84,-11.09 -26.84,4.44 0,15.54 21.84,19.15 26.84,4.44 h 32.28 l 60.75,-42.93 h 137.58 c 4.16,12.48 21.92,12.47 26.07,0 h 86.89 c 4.35,5.69 7.76,12.01 10.17,18.83 h -194.58 l -32.34,24.27 c -9.13,-6.3 -21.56,0.31 -21.56,11.37 0,7.62 6.2,13.81 13.81,13.81 9.38,0 16.05,-9.21 13.12,-18.1 l 29.93,-22.47 h 194.13 c 1.14,5.42 1.63,10.99 1.46,16.6 h -146.33 l -30.41,21.59 c -9.11,-6.67 -21.86,-0.03 -21.86,11.16 0,13.48 17.51,18.99 25.21,7.8 2.4,-3.48 3.04,-7.7 1.82,-11.73 1.98,-1.4 8.45,-6 28.08,-19.93 h 142.65 c -2.75,17.14 -11.88,32.41 -25.83,43.17 z"
   id="path57" />
			</g>
			<g
   id="g63">
				<path
   class="st1"
   d="m -406.71,-662.93 c -3.38,0 -5.42,-3.79 -3.49,-6.62 3.18,-4.65 10.12,0.18 6.99,4.77 -0.8,1.18 -2.08,1.85 -3.5,1.85 z"
   id="path61" />
			</g>
			<g
   id="g67">
				<path
   class="st1"
   d="m -477.38,-579.6 c 0,-6.08 9.36,-5.28 8.37,0.72 -0.85,5.16 -8.37,4.4 -8.37,-0.72 z"
   id="path65" />
			</g>
		</g>
	</g>
	<g
   id="g135">
		<g
   id="g91">
			<path
   d="m -419.9,187.38 c 0,-5.45 -7.06,-7.61 -10.13,-3.12 -1.28,1.89 -1.28,4.37 0,6.25 3.07,4.49 10.13,2.32 10.13,-3.13 z"
   id="path73" />
			<path
   d="m -514.42,214.29 c 11.76,0 49.89,0 95.66,0 3.24,-12.44 20.87,-12.46 24.11,0 38,0 78.77,0 113,0 -8.93,-65.96 -83.46,-103.37 -142.26,-68.63 -15.55,-31.27 -47.8,-52.77 -85.08,-52.77 -53.68,0 -97.22,44.62 -94.88,99.16 -17.35,0 -33.33,5.29 -46.5,14.28 h 38.08 c 1.4,-5.38 6.25,-9.37 12.05,-9.37 6.89,0 12.5,5.6 12.5,12.5 0,6.89 -5.61,12.49 -12.5,12.49 -5.8,0 -10.65,-4 -12.05,-9.37 h -46.09 c -7.13,6.29 -13.14,13.77 -17.73,22.14 h 85.84 c 14.08,-9.61 59.45,-40.57 73.94,-50.46 27.34,0 52.29,0 78.84,0 1.4,-5.37 6.25,-9.37 12.05,-9.37 6.89,0 12.5,5.61 12.5,12.5 0,6.89 -5.61,12.5 -12.5,12.5 -5.81,0 -10.66,-4 -12.05,-9.37 h -76.91 c -10.83,7.39 -63.25,43.17 -73.94,50.47 -17.61,0 -61.79,0 -90.85,0 -2.54,5.74 -4.44,11.8 -5.61,18.12 h 107.09 c 57.58,-40.78 51.67,-36.59 63.29,-44.82 z"
   id="path75" />
			<path
   d="m -594.7,209.46 c 0,-5.46 -7.07,-7.61 -10.13,-3.12 -1.29,1.89 -1.29,4.36 0,6.25 3.07,4.49 10.13,2.31 10.13,-3.13 z"
   id="path77" />
			<path
   d="m -417.37,322.37 c -3.73,-1.38 -7.46,1.42 -7.46,5.19 0,3.06 2.48,5.55 5.55,5.55 6.14,0 7.69,-8.61 1.91,-10.74 z"
   id="path79" />
			<path
   d="m -610.8,288.99 c 0,5.45 7.07,7.62 10.13,3.13 1.29,-1.89 1.29,-4.36 0,-6.25 -3.06,-4.49 -10.13,-2.32 -10.13,3.12 z"
   id="path81" />
			<path
   d="m -348.57,240.51 c -3.06,0 -5.55,2.48 -5.55,5.55 0,3.07 2.48,5.55 5.55,5.55 3.07,0 5.55,-2.48 5.55,-5.55 0,-3.06 -2.48,-5.55 -5.55,-5.55 z"
   id="path83" />
			<path
   d="m -418.76,220.54 c -40.99,0 -74.96,0 -93.67,0 -3.18,2.25 -60.2,42.6 -63.3,44.8 -36.97,0 -73.39,0 -110.01,0 -3.81,35.59 15.5,68.13 46,82.84 11.32,0 361.89,0 379,0 15.81,-12.03 24.54,-28.61 26.92,-45.8 h -144.6 c -26.15,18.56 -29.23,20.75 -29.23,20.75 3.21,8.4 -3.13,16.93 -11.64,16.93 -6.89,0 -12.5,-5.61 -12.5,-12.5 0,-10.55 12.32,-16.42 20.5,-9.51 6.31,-4.48 12.35,-8.77 30.87,-21.91 16.32,0 103.53,0 147.17,0 0.31,-6.46 -0.24,-12.94 -1.66,-19.23 h -195.63 c -6.63,4.97 -21.24,15.94 -31.06,23.32 3.41,8.26 -2.72,17.25 -11.55,17.25 -6.89,0 -12.5,-5.6 -12.5,-12.5 0,-10.36 11.98,-16.32 20.25,-9.72 4.51,-3.39 13.21,-9.92 32.77,-24.6 16.46,0 149.78,0 195.98,0 -2.49,-7.69 -6.3,-14.98 -11.36,-21.47 -20.62,0 -53.29,0 -88.52,0 0,0 0,-0.01 0,-0.01 -3.23,12.46 -20.88,12.48 -24.12,0 0,0.01 0,0.01 0,0.01 -61.5,0 -123.98,0 -138.98,0 -13.41,9.48 -47.24,33.39 -60.75,42.93 -16.52,0 -21.6,0 -32.84,0 -1.4,5.37 -6.25,9.37 -12.05,9.37 -6.89,0 -12.5,-5.6 -12.5,-12.5 0,-6.89 5.61,-12.5 12.5,-12.5 5.8,0 10.65,4 12.05,9.37 h 30.85 c 22.04,-15.57 39.17,-27.68 60.75,-42.93 22.57,0 82.81,0 140.97,0 0,0.01 0,0.01 0,0.01 3.23,-12.46 20.88,-12.48 24.12,0 0,0 0,-0.01 0,-0.01 32.74,0 62.93,0 82.99,0 -7.26,-7.27 -16.35,-13.13 -27.21,-16.79 -0.03,-1.89 -0.14,-3.76 -0.27,-5.61 -38.58,0 -77.97,0 -113.65,0 -3.22,12.49 -20.85,12.43 -24.09,0.01 z"
   id="path85" />
			<path
   d="m -411.29,214.29 c -1.29,1.89 -1.28,4.37 0,6.25 2.21,3.24 6.96,3.23 9.17,0 1.29,-1.89 1.29,-4.36 0,-6.25 -2.21,-3.23 -6.96,-3.23 -9.17,0 z"
   id="path87" />
			<path
   d="m -471.37,299.74 c -3.72,-1.26 -7.32,1.55 -7.32,5.24 0,3.06 2.48,5.55 5.55,5.55 6.28,-0.01 7.63,-8.8 1.77,-10.79 z"
   id="path89" />
		</g>
		<path
   d="m -257.18,209.27 c -11.12,-71.78 -86.06,-120.02 -157.38,-95.37 -65.59,-84.2 -203.46,-44.38 -217.77,51.59 -45.43,16.08 -78.93,58.4 -78.93,108.68 0,40.86 23.79,78.75 60.61,96.52 l 5.15,2.48 h 393.14 l 6.71,-5.11 c 56.24,-42.8 46.75,-127.12 -11.53,-158.79 z m 3.96,148.86 -3.35,2.55 h -386.07 c -37.6,-18.14 -56.12,-52.27 -56.12,-86.5 0,-48 37.08,-89.11 77.84,-98.03 6.45,-95.1 144.94,-134.59 201.86,-47.05 67.4,-29.87 143.57,16.48 150.31,88.37 55.56,25.14 66.04,102.22 15.53,140.66 z"
   id="path93" />
		<path
   class="st1"
   d="m -644.9,370.54 -4.6,-2.22 c -85.33,-41.17 -77.59,-166.51 19.55,-200.87 14.26,-95.7 148.43,-135.16 214.48,-50.44 72.07,-24.92 144.7,21.64 155.89,93.96 59.3,32.21 66.19,114.01 12.34,155.01 l -6,4.57 H -644.9 Z m 21.5,-196.52 c -38.68,9.46 -78,48.98 -78,100.16 0,37.07 20.26,70.87 58.15,89.14 h 387.56 l 4.06,-3.09 c 51.34,-39.07 41.91,-117.71 -14.66,-144.51 -7.66,-70.97 -82.93,-118.83 -151.8,-89.9 -58.77,-86.74 -197.05,-46.96 -205.31,48.2 z"
   id="path95" />
		<g
   id="g133">
			<g
   id="g99">
				<path
   class="st1"
   d="m -425.51,191.61 c -3.32,0 -5.35,-3.8 -3.43,-6.61 2.35,-3.45 7.73,-1.73 7.73,2.38 0,2.67 -2.18,4.23 -4.3,4.23 z"
   id="path97" />
			</g>
			<g
   id="g103">
				<path
   class="st1"
   d="m -683.21,257.77 c 1.1,-5.31 2.74,-10.51 4.88,-15.49 h 90.39 c 0,0 62.41,-42.6 73.94,-50.47 h 75.53 c 5.01,14.72 26.85,11.09 26.85,-4.44 0,-15.52 -21.83,-19.17 -26.85,-4.44 h -78.27 c 0,0 -59.49,40.6 -73.94,50.46 h -83.18 c 4.27,-7.29 9.63,-13.84 15.97,-19.5 h 44.61 c 5.01,14.71 26.85,11.09 26.85,-4.44 0,-15.52 -21.84,-19.17 -26.85,-4.44 h -32.62 c 13.66,-8.27 27.88,-11.65 43.39,-11.65 -2.48,-57.5 42.31,-99.16 93.51,-99.16 34.28,0 67.07,18.18 84.54,53.31 60.17,-35.54 131.7,2.34 141.29,65.46 h -110.5 c -4.16,-12.48 -21.92,-12.47 -26.07,0 h -95.1 l -63.3,44.8 z"
   id="path101" />
			</g>
			<g
   id="g107">
				<path
   class="st1"
   d="m -603.74,207.08 c 2.36,-3.45 7.73,-1.74 7.73,2.38 0,1.55 -0.72,2.53 -1.32,3.08 -3.79,3.46 -9.21,-1.36 -6.41,-5.46 z"
   id="path105" />
			</g>
			<g
   id="g111">
				<path
   class="st1"
   d="m -423.52,327.56 c 0,-2.33 1.88,-4.23 4.19,-4.23 2.54,0 4.69,2.13 4.18,4.97 -0.92,5.16 -8.37,4.34 -8.37,-0.74 z"
   id="path109" />
			</g>
			<g
   id="g115">
				<path
   class="st1"
   d="m -605.18,293.22 c -5.71,0 -5.72,-8.46 0,-8.46 1.4,0 2.62,0.66 3.43,1.85 1.91,2.81 -0.12,6.61 -3.43,6.61 z"
   id="path113" />
			</g>
			<g
   id="g119">
				<path
   class="st1"
   d="m -348.57,250.29 c -2.33,0 -4.23,-1.9 -4.23,-4.23 0,-2.33 1.9,-4.23 4.23,-4.23 2.33,0 4.23,1.9 4.23,4.23 0,2.34 -1.9,4.23 -4.23,4.23 z"
   id="path117" />
			</g>
			<g
   id="g123">
				<path
   class="st1"
   d="m -639.43,346.87 c -30.19,-14.7 -48.2,-46.79 -45.11,-80.21 h 109.23 l 63.3,-44.8 h 92.27 c 4.15,12.46 21.92,12.49 26.07,0 h 111.43 c 0.17,2.67 0.18,3.93 0.2,5.24 9.33,3.14 17.5,7.49 25.23,14.52 h -78.72 c -4.16,-12.48 -21.92,-12.47 -26.07,0 H -502 l -60.75,42.93 h -29.45 c -5.01,-14.72 -26.84,-11.09 -26.84,4.44 0,15.54 21.84,19.15 26.84,4.44 h 32.28 l 60.75,-42.93 h 137.58 c 4.16,12.48 21.92,12.47 26.07,0 h 86.89 c 4.35,5.69 7.76,12.01 10.17,18.83 h -194.58 l -32.34,24.27 c -9.13,-6.3 -21.56,0.31 -21.56,11.37 0,7.62 6.2,13.81 13.81,13.81 9.38,0 16.05,-9.21 13.12,-18.1 l 29.93,-22.47 h 194.13 c 1.14,5.42 1.63,10.99 1.46,16.6 h -146.33 l -30.41,21.59 c -9.11,-6.67 -21.86,-0.03 -21.86,11.16 0,13.48 17.51,18.99 25.21,7.8 2.4,-3.48 3.04,-7.7 1.82,-11.73 1.98,-1.4 8.45,-6 28.08,-19.93 h 142.65 c -2.75,17.14 -11.88,32.41 -25.83,43.17 z"
   id="path121" />
			</g>
			<g
   id="g127">
				<path
   class="st1"
   d="m -406.71,221.65 c -3.38,0 -5.42,-3.79 -3.49,-6.62 3.18,-4.65 10.12,0.18 6.99,4.77 -0.8,1.17 -2.08,1.85 -3.5,1.85 z"
   id="path125" />
			</g>
			<g
   id="g131">
				<path
   class="st1"
   d="m -477.38,304.98 c 0,-6.08 9.36,-5.28 8.37,0.72 -0.85,5.15 -8.37,4.39 -8.37,-0.72 z"
   id="path129" />
			</g>
		</g>
	</g>
	<g
   id="g139">
		
			<text
   transform="translate(59.9761,-391.3857)"
   class="st2"
   style="font-size:75.6455px;font-family:Impact;letter-spacing:15"
   id="text137">INFORMÁTICA SG</text>
	</g>
	<g
   id="g159">
		<path
   class="st2"
   d="m 452.92,-697.19 c 0,-5.45 -7.06,-7.61 -10.13,-3.12 -1.28,1.89 -1.28,4.37 0,6.25 3.07,4.49 10.13,2.31 10.13,-3.13 z"
   id="path141" />
		<path
   class="st2"
   d="m 358.4,-670.28 c 11.76,0 49.89,0 95.66,0 3.24,-12.44 20.87,-12.46 24.11,0 38,0 78.77,0 113,0 -8.93,-65.96 -83.46,-103.37 -142.26,-68.63 -15.55,-31.27 -47.8,-52.77 -85.08,-52.77 -53.68,0 -97.22,44.62 -94.88,99.16 -17.35,0 -33.33,5.29 -46.5,14.28 h 38.08 c 1.4,-5.38 6.25,-9.37 12.05,-9.37 6.89,0 12.5,5.6 12.5,12.5 0,6.89 -5.61,12.49 -12.5,12.49 -5.8,0 -10.65,-4 -12.05,-9.37 h -46.09 c -7.13,6.29 -13.14,13.77 -17.73,22.14 h 85.84 c 14.08,-9.61 59.45,-40.57 73.94,-50.46 27.34,0 52.29,0 78.84,0 1.4,-5.37 6.25,-9.37 12.05,-9.37 6.89,0 12.5,5.61 12.5,12.5 0,6.89 -5.61,12.5 -12.5,12.5 -5.81,0 -10.66,-4 -12.05,-9.37 h -76.91 c -10.83,7.39 -63.25,43.17 -73.94,50.47 -17.61,0 -61.79,0 -90.85,0 -2.54,5.74 -4.44,11.8 -5.61,18.12 H 295.1 c 57.59,-40.78 51.68,-36.59 63.3,-44.82 z"
   id="path143" />
		<path
   class="st2"
   d="m 278.12,-675.11 c 0,-5.46 -7.07,-7.61 -10.13,-3.12 -1.29,1.89 -1.29,4.36 0,6.25 3.07,4.49 10.13,2.31 10.13,-3.13 z"
   id="path145" />
		<path
   class="st2"
   d="m 455.44,-562.2 c -3.73,-1.38 -7.46,1.42 -7.46,5.19 0,3.06 2.48,5.55 5.55,5.55 6.15,0 7.7,-8.61 1.91,-10.74 z"
   id="path147" />
		<path
   class="st2"
   d="m 262.02,-595.58 c 0,5.45 7.07,7.62 10.13,3.13 1.29,-1.89 1.29,-4.36 0,-6.25 -3.07,-4.49 -10.13,-2.32 -10.13,3.12 z"
   id="path149" />
		<path
   class="st2"
   d="m 524.25,-644.06 c -3.06,0 -5.55,2.48 -5.55,5.55 0,3.07 2.48,5.55 5.55,5.55 3.07,0 5.55,-2.48 5.55,-5.55 0,-3.06 -2.49,-5.55 -5.55,-5.55 z"
   id="path151" />
		<path
   class="st2"
   d="m 454.06,-664.04 c -40.99,0 -74.96,0 -93.67,0 -3.18,2.25 -60.2,42.6 -63.3,44.8 -36.97,0 -73.39,0 -110.01,0 -3.81,35.59 15.5,68.13 46,82.84 11.32,0 361.89,0 379,0 15.81,-12.03 24.54,-28.61 26.92,-45.8 H 494.4 c -26.15,18.56 -29.23,20.75 -29.23,20.75 3.21,8.4 -3.13,16.93 -11.64,16.93 -6.89,0 -12.5,-5.61 -12.5,-12.5 0,-10.55 12.32,-16.42 20.5,-9.51 6.31,-4.48 12.35,-8.77 30.87,-21.91 16.32,0 103.53,0 147.17,0 0.31,-6.46 -0.24,-12.94 -1.66,-19.23 H 442.28 c -6.63,4.97 -21.24,15.94 -31.06,23.32 3.41,8.26 -2.72,17.25 -11.55,17.25 -6.89,0 -12.5,-5.6 -12.5,-12.5 0,-10.36 11.98,-16.32 20.25,-9.72 4.51,-3.39 13.21,-9.92 32.77,-24.6 16.46,0 149.78,0 195.98,0 -2.49,-7.69 -6.3,-14.98 -11.36,-21.47 -20.62,0 -53.29,0 -88.52,0 0,0 0,-0.01 0,-0.01 -3.23,12.46 -20.88,12.48 -24.12,0 0,0.01 0,0.01 0,0.01 -61.5,0 -123.98,0 -138.98,0 -13.41,9.48 -47.24,33.39 -60.75,42.93 -16.52,0 -21.6,0 -32.84,0 -1.4,5.37 -6.25,9.37 -12.05,9.37 -6.89,0 -12.5,-5.6 -12.5,-12.5 0,-6.89 5.61,-12.5 12.5,-12.5 5.8,0 10.65,4 12.05,9.37 h 30.85 c 22.04,-15.57 39.17,-27.68 60.75,-42.93 22.57,0 82.81,0 140.97,0 0,0.01 0,0.01 0,0.01 3.23,-12.46 20.88,-12.48 24.12,0 0,0 0,-0.01 0,-0.01 32.74,0 62.93,0 82.99,0 -7.26,-7.27 -16.35,-13.13 -27.21,-16.79 -0.03,-1.89 -0.14,-3.76 -0.27,-5.61 -38.58,0 -77.97,0 -113.65,0 -3.23,12.5 -20.86,12.44 -24.09,0.01 z"
   id="path153" />
		<path
   class="st2"
   d="m 461.53,-670.28 c -1.29,1.89 -1.28,4.37 0,6.25 2.21,3.24 6.96,3.23 9.17,0 1.29,-1.89 1.29,-4.36 0,-6.25 -2.21,-3.24 -6.96,-3.23 -9.17,0 z"
   id="path155" />
		<path
   class="st2"
   d="m 401.44,-584.83 c -3.72,-1.26 -7.32,1.55 -7.32,5.24 0,3.06 2.48,5.55 5.55,5.55 6.29,-0.01 7.64,-8.8 1.77,-10.79 z"
   id="path157" />
	</g>
	<path
   class="st2"
   d="m 615.64,-675.3 c -11.12,-71.78 -86.06,-120.02 -157.38,-95.37 -65.59,-84.2 -203.46,-44.38 -217.77,51.59 -45.43,16.08 -78.93,58.4 -78.93,108.68 0,40.86 23.79,78.75 60.61,96.52 l 5.15,2.48 h 393.14 l 6.71,-5.11 c 56.23,-42.8 46.74,-127.12 -11.53,-158.79 z m 3.96,148.85 -3.35,2.55 H 230.17 c -37.6,-18.14 -56.12,-52.27 -56.12,-86.5 0,-48 37.08,-89.11 77.84,-98.03 6.45,-95.1 144.94,-134.59 201.86,-47.05 67.4,-29.87 143.57,16.48 150.31,88.37 55.56,25.14 66.04,102.22 15.54,140.66 z"
   id="path161" />
	<path
   class="st2"
   d="m 227.92,-514.03 -4.6,-2.22 c -85.33,-41.17 -77.59,-166.51 19.55,-200.87 14.26,-95.7 148.43,-135.16 214.48,-50.44 72.07,-24.92 144.7,21.64 155.89,93.96 59.3,32.21 66.19,114.01 12.34,155.01 l -6,4.57 H 227.92 Z m 21.5,-196.52 c -38.68,9.46 -78,48.98 -78,100.16 0,37.07 20.26,70.87 58.15,89.14 h 387.56 l 4.06,-3.09 c 51.34,-39.07 41.91,-117.71 -14.66,-144.51 -7.66,-70.97 -82.93,-118.83 -151.8,-89.9 -58.78,-86.74 -197.05,-46.97 -205.31,48.2 z"
   id="path163" />
	<g
   id="g201">
		<g
   id="g167">
			<path
   class="st2"
   d="m 447.31,-692.96 c -3.32,0 -5.35,-3.8 -3.43,-6.61 2.35,-3.45 7.73,-1.73 7.73,2.38 -0.01,2.67 -2.19,4.23 -4.3,4.23 z"
   id="path165" />
		</g>
		<g
   id="g171">
			<path
   class="st2"
   d="m 189.61,-626.8 c 1.1,-5.31 2.74,-10.51 4.88,-15.49 h 90.39 c 0,0 62.41,-42.6 73.94,-50.47 h 75.53 c 5.01,14.72 26.85,11.09 26.85,-4.44 0,-15.52 -21.83,-19.17 -26.85,-4.44 h -78.27 c 0,0 -59.49,40.6 -73.94,50.46 h -83.18 c 4.27,-7.29 9.63,-13.84 15.97,-19.5 h 44.61 c 5.01,14.71 26.85,11.09 26.85,-4.44 0,-15.52 -21.84,-19.17 -26.85,-4.44 h -32.62 c 13.66,-8.27 27.88,-11.65 43.39,-11.65 -2.48,-57.5 42.31,-99.16 93.51,-99.16 34.28,0 67.07,18.18 84.54,53.31 60.17,-35.54 131.7,2.34 141.29,65.46 h -110.5 c -4.16,-12.48 -21.92,-12.47 -26.07,0 h -95.1 l -63.3,44.8 z"
   id="path169" />
		</g>
		<g
   id="g175">
			<path
   class="st2"
   d="m 269.07,-677.49 c 2.36,-3.45 7.73,-1.74 7.73,2.38 0,1.55 -0.72,2.53 -1.32,3.08 -3.79,3.46 -9.2,-1.36 -6.41,-5.46 z"
   id="path173" />
		</g>
		<g
   id="g179">
			<path
   class="st2"
   d="m 449.29,-557.01 c 0,-2.33 1.88,-4.23 4.19,-4.23 2.54,0 4.69,2.13 4.18,4.97 -0.91,5.16 -8.37,4.34 -8.37,-0.74 z"
   id="path177" />
		</g>
		<g
   id="g183">
			<path
   class="st2"
   d="m 267.63,-591.35 c -5.71,0 -5.72,-8.46 0,-8.46 1.4,0 2.62,0.66 3.43,1.85 1.92,2.81 -0.11,6.61 -3.43,6.61 z"
   id="path181" />
		</g>
		<g
   id="g187">
			<path
   class="st2"
   d="m 524.25,-634.28 c -2.33,0 -4.23,-1.9 -4.23,-4.23 0,-2.33 1.9,-4.23 4.23,-4.23 2.33,0 4.23,1.9 4.23,4.23 0,2.33 -1.9,4.23 -4.23,4.23 z"
   id="path185" />
		</g>
		<g
   id="g191">
			<path
   class="st2"
   d="m 233.38,-537.7 c -30.19,-14.7 -48.2,-46.79 -45.11,-80.21 H 297.5 l 63.3,-44.8 h 92.27 c 4.15,12.46 21.92,12.49 26.07,0 h 111.43 c 0.17,2.67 0.18,3.93 0.2,5.24 9.33,3.14 17.5,7.49 25.23,14.52 h -78.72 c -4.16,-12.48 -21.92,-12.47 -26.07,0 h -140.4 l -60.75,42.93 H 280.6 c -5.01,-14.72 -26.84,-11.09 -26.84,4.44 0,15.54 21.84,19.15 26.84,4.44 h 32.28 l 60.75,-42.93 h 137.58 c 4.16,12.48 21.92,12.47 26.07,0 h 86.89 c 4.35,5.69 7.76,12.01 10.17,18.83 H 439.76 l -32.34,24.27 c -9.13,-6.3 -21.56,0.31 -21.56,11.37 0,7.62 6.2,13.81 13.81,13.81 9.38,0 16.05,-9.21 13.12,-18.1 l 29.93,-22.47 h 194.13 c 1.14,5.42 1.63,10.99 1.46,16.6 H 491.99 l -30.41,21.59 c -9.11,-6.67 -21.86,-0.03 -21.86,11.16 0,13.48 17.51,18.99 25.21,7.8 2.4,-3.48 3.04,-7.7 1.82,-11.73 1.98,-1.4 8.45,-6 28.08,-19.93 h 142.65 c -2.75,17.14 -11.88,32.41 -25.83,43.17 z"
   id="path189" />
		</g>
		<g
   id="g195">
			<path
   class="st2"
   d="m 466.11,-662.93 c -3.38,0 -5.42,-3.79 -3.49,-6.62 3.18,-4.65 10.12,0.18 6.99,4.77 -0.8,1.18 -2.08,1.85 -3.5,1.85 z"
   id="path193" />
		</g>
		<g
   id="g199">
			<path
   class="st2"
   d="m 395.44,-579.6 c 0,-6.08 9.36,-5.28 8.37,0.72 -0.85,5.16 -8.37,4.4 -8.37,-0.72 z"
   id="path197" />
		</g>
	</g>
	<g
   id="g221">
		<path
   class="st2"
   d="m 452.92,194.01 c 0,-5.45 -7.06,-7.61 -10.13,-3.12 -1.28,1.89 -1.28,4.37 0,6.25 3.07,4.49 10.13,2.32 10.13,-3.13 z"
   id="path203" />
		<path
   class="st2"
   d="m 358.4,220.92 c 11.76,0 49.89,0 95.66,0 3.24,-12.44 20.87,-12.46 24.11,0 38,0 78.77,0 113,0 -8.93,-65.96 -83.46,-103.37 -142.26,-68.63 -15.55,-31.27 -47.8,-52.77 -85.08,-52.77 -53.68,0 -97.22,44.62 -94.88,99.16 -17.35,0 -33.33,5.29 -46.5,14.28 h 38.08 c 1.4,-5.38 6.25,-9.37 12.05,-9.37 6.89,0 12.5,5.6 12.5,12.5 0,6.89 -5.61,12.49 -12.5,12.49 -5.8,0 -10.65,-4 -12.05,-9.37 h -46.09 c -7.13,6.29 -13.14,13.77 -17.73,22.14 h 85.84 c 14.08,-9.61 59.45,-40.57 73.94,-50.46 27.34,0 52.29,0 78.84,0 1.4,-5.37 6.25,-9.37 12.05,-9.37 6.89,0 12.5,5.61 12.5,12.5 0,6.89 -5.61,12.5 -12.5,12.5 -5.81,0 -10.66,-4 -12.05,-9.37 h -76.91 c -10.83,7.39 -63.25,43.17 -73.94,50.47 -17.61,0 -61.79,0 -90.85,0 -2.54,5.74 -4.44,11.8 -5.61,18.12 H 295.1 c 57.59,-40.77 51.68,-36.59 63.3,-44.82 z"
   id="path205" />
		<path
   class="st2"
   d="m 278.12,216.09 c 0,-5.46 -7.07,-7.61 -10.13,-3.12 -1.29,1.89 -1.29,4.36 0,6.25 3.07,4.49 10.13,2.31 10.13,-3.13 z"
   id="path207" />
		<path
   class="st2"
   d="m 455.44,329.01 c -3.73,-1.38 -7.46,1.42 -7.46,5.19 0,3.06 2.48,5.55 5.55,5.55 6.15,0 7.7,-8.62 1.91,-10.74 z"
   id="path209" />
		<path
   class="st2"
   d="m 262.02,295.63 c 0,5.45 7.07,7.62 10.13,3.13 1.29,-1.89 1.29,-4.36 0,-6.25 -3.07,-4.5 -10.13,-2.32 -10.13,3.12 z"
   id="path211" />
		<path
   class="st2"
   d="m 524.25,247.15 c -3.06,0 -5.55,2.48 -5.55,5.55 0,3.07 2.48,5.55 5.55,5.55 3.07,0 5.55,-2.48 5.55,-5.55 0,-3.07 -2.49,-5.55 -5.55,-5.55 z"
   id="path213" />
		<path
   class="st2"
   d="m 454.06,227.17 c -40.99,0 -74.96,0 -93.67,0 -3.18,2.25 -60.2,42.6 -63.3,44.8 -36.97,0 -73.39,0 -110.01,0 -3.81,35.59 15.5,68.13 46,82.84 11.32,0 361.89,0 379,0 15.81,-12.03 24.54,-28.61 26.92,-45.8 H 494.4 c -26.15,18.56 -29.23,20.75 -29.23,20.75 3.21,8.4 -3.13,16.93 -11.64,16.93 -6.89,0 -12.5,-5.61 -12.5,-12.5 0,-10.55 12.32,-16.42 20.5,-9.51 6.31,-4.48 12.35,-8.77 30.87,-21.91 16.32,0 103.53,0 147.17,0 0.31,-6.46 -0.24,-12.94 -1.66,-19.23 H 442.28 c -6.63,4.97 -21.24,15.94 -31.06,23.32 3.41,8.26 -2.72,17.25 -11.55,17.25 -6.89,0 -12.5,-5.6 -12.5,-12.5 0,-10.36 11.98,-16.32 20.25,-9.72 4.51,-3.39 13.21,-9.92 32.77,-24.6 16.46,0 149.78,0 195.98,0 -2.49,-7.69 -6.3,-14.98 -11.36,-21.47 -20.62,0 -53.29,0 -88.52,0 0,0 0,-0.01 0,-0.01 -3.23,12.46 -20.88,12.48 -24.12,0 0,0.01 0,0.01 0,0.01 -61.5,0 -123.98,0 -138.98,0 -13.41,9.48 -47.24,33.39 -60.75,42.93 -16.52,0 -21.6,0 -32.84,0 -1.4,5.37 -6.25,9.37 -12.05,9.37 -6.89,0 -12.5,-5.6 -12.5,-12.5 0,-6.89 5.61,-12.5 12.5,-12.5 5.8,0 10.65,4 12.05,9.37 h 30.85 c 22.04,-15.57 39.17,-27.68 60.75,-42.93 22.57,0 82.81,0 140.97,0 0,0.01 0,0.01 0,0.01 3.23,-12.46 20.88,-12.48 24.12,0 0,0 0,-0.01 0,-0.01 32.74,0 62.93,0 82.99,0 -7.26,-7.27 -16.35,-13.13 -27.21,-16.79 -0.03,-1.89 -0.14,-3.76 -0.27,-5.61 -38.58,0 -77.97,0 -113.65,0 -3.23,12.49 -20.86,12.44 -24.09,0.01 z"
   id="path215" />
		<path
   class="st2"
   d="m 461.53,220.92 c -1.29,1.89 -1.28,4.37 0,6.25 2.21,3.24 6.96,3.23 9.17,0 1.29,-1.89 1.29,-4.36 0,-6.25 -2.21,-3.23 -6.96,-3.23 -9.17,0 z"
   id="path217" />
		<path
   class="st2"
   d="m 401.44,306.37 c -3.72,-1.26 -7.32,1.55 -7.32,5.24 0,3.06 2.48,5.55 5.55,5.55 6.29,0 7.64,-8.8 1.77,-10.79 z"
   id="path219" />
	</g>
	<path
   class="st3"
   d="M 615.64,215.91 C 604.52,144.13 529.58,95.89 458.26,120.54 392.67,36.34 254.8,76.16 240.49,172.13 c -45.43,16.08 -78.93,58.4 -78.93,108.68 0,40.86 23.79,78.75 60.61,96.52 l 5.15,2.48 h 393.14 l 6.71,-5.11 C 683.4,331.9 673.91,247.58 615.64,215.91 Z m 3.96,148.85 -3.35,2.55 H 230.17 c -37.6,-18.14 -56.12,-52.27 -56.12,-86.5 0,-48 37.08,-89.11 77.84,-98.03 6.45,-95.1 144.94,-134.59 201.86,-47.05 67.4,-29.87 143.57,16.48 150.31,88.37 55.56,25.14 66.04,102.22 15.54,140.66 z"
   id="path223" />
	<path
   class="st2"
   d="m 227.92,377.18 -4.6,-2.22 C 137.99,333.79 145.73,208.45 242.87,174.09 257.13,78.39 391.3,38.93 457.35,123.65 c 72.07,-24.92 144.7,21.64 155.89,93.96 59.3,32.21 66.19,114.01 12.34,155.01 l -6,4.57 H 227.92 Z m 21.5,-196.53 c -38.68,9.46 -78,48.98 -78,100.16 0,37.07 20.26,70.87 58.15,89.14 h 387.56 l 4.06,-3.09 C 672.53,327.79 663.1,249.15 606.53,222.35 598.87,151.38 523.6,103.52 454.73,132.45 395.95,45.72 257.68,85.49 249.42,180.65 Z"
   id="path225" />
	<g
   id="g263">
		<g
   id="g229">
			<path
   class="st2"
   d="m 447.31,198.24 c -3.32,0 -5.35,-3.8 -3.43,-6.61 2.35,-3.45 7.73,-1.73 7.73,2.38 -0.01,2.68 -2.19,4.23 -4.3,4.23 z"
   id="path227" />
		</g>
		<g
   id="g233">
			<path
   class="st2"
   d="m 189.61,264.41 c 1.1,-5.31 2.74,-10.51 4.88,-15.49 h 90.39 c 0,0 62.41,-42.6 73.94,-50.47 h 75.53 c 5.01,14.72 26.85,11.09 26.85,-4.44 0,-15.52 -21.83,-19.17 -26.85,-4.44 h -78.27 c 0,0 -59.49,40.6 -73.94,50.46 h -83.18 c 4.27,-7.29 9.63,-13.84 15.97,-19.5 h 44.61 c 5.01,14.71 26.85,11.09 26.85,-4.44 0,-15.52 -21.84,-19.17 -26.85,-4.44 H 226.92 C 240.58,203.38 254.8,200 270.31,200 c -2.48,-57.5 42.31,-99.16 93.51,-99.16 34.28,0 67.07,18.18 84.54,53.31 60.17,-35.54 131.7,2.34 141.29,65.46 h -110.5 c -4.16,-12.48 -21.92,-12.47 -26.07,0 h -95.1 l -63.3,44.8 z"
   id="path231" />
		</g>
		<g
   id="g237">
			<path
   class="st2"
   d="m 269.07,213.71 c 2.36,-3.45 7.73,-1.74 7.73,2.38 0,1.55 -0.72,2.53 -1.32,3.08 -3.79,3.47 -9.2,-1.36 -6.41,-5.46 z"
   id="path235" />
		</g>
		<g
   id="g241">
			<path
   class="st2"
   d="m 449.29,334.2 c 0,-2.33 1.88,-4.23 4.19,-4.23 2.54,0 4.69,2.13 4.18,4.97 -0.91,5.15 -8.37,4.33 -8.37,-0.74 z"
   id="path239" />
		</g>
		<g
   id="g245">
			<path
   class="st2"
   d="m 267.63,299.86 c -5.71,0 -5.72,-8.46 0,-8.46 1.4,0 2.62,0.66 3.43,1.85 1.92,2.81 -0.11,6.61 -3.43,6.61 z"
   id="path243" />
		</g>
		<g
   id="g249">
			<path
   class="st2"
   d="m 524.25,256.93 c -2.33,0 -4.23,-1.9 -4.23,-4.23 0,-2.33 1.9,-4.23 4.23,-4.23 2.33,0 4.23,1.9 4.23,4.23 0,2.33 -1.9,4.23 -4.23,4.23 z"
   id="path247" />
		</g>
		<g
   id="g253">
			<path
   class="st2"
   d="m 233.38,353.5 c -30.19,-14.7 -48.2,-46.79 -45.11,-80.21 H 297.5 l 63.3,-44.8 h 92.27 c 4.15,12.46 21.92,12.49 26.07,0 h 111.43 c 0.17,2.67 0.18,3.93 0.2,5.24 9.33,3.14 17.5,7.49 25.23,14.52 h -78.72 c -4.16,-12.48 -21.92,-12.47 -26.07,0 h -140.4 l -60.75,42.93 H 280.6 c -5.01,-14.72 -26.84,-11.09 -26.84,4.44 0,15.54 21.84,19.15 26.84,4.44 h 32.28 l 60.75,-42.93 h 137.58 c 4.16,12.48 21.92,12.47 26.07,0 h 86.89 c 4.35,5.69 7.76,12.01 10.17,18.83 H 439.76 l -32.34,24.27 c -9.13,-6.3 -21.56,0.31 -21.56,11.37 0,7.62 6.2,13.81 13.81,13.81 9.38,0 16.05,-9.21 13.12,-18.1 l 29.93,-22.47 h 194.13 c 1.14,5.42 1.63,10.99 1.46,16.6 H 491.99 l -30.41,21.59 c -9.11,-6.67 -21.86,-0.03 -21.86,11.16 0,13.48 17.51,18.99 25.21,7.8 2.4,-3.48 3.04,-7.7 1.82,-11.73 1.98,-1.4 8.45,-6 28.08,-19.93 h 142.65 c -2.75,17.14 -11.88,32.41 -25.83,43.17 z"
   id="path251" />
		</g>
		<g
   id="g257">
			<path
   class="st2"
   d="m 466.11,228.28 c -3.38,0 -5.42,-3.79 -3.49,-6.62 3.18,-4.65 10.12,0.18 6.99,4.77 -0.8,1.17 -2.08,1.85 -3.5,1.85 z"
   id="path255" />
		</g>
		<g
   id="g261">
			<path
   class="st2"
   d="m 395.44,311.61 c 0,-6.08 9.36,-5.28 8.37,0.72 -0.85,5.15 -8.37,4.39 -8.37,-0.72 z"
   id="path259" />
		</g>
	</g>
	<g
   id="g267">
		
			<text
   transform="translate(953.3633,-391.3857)"
   class="st13"
   style="font-size:75.6455px;font-family:Impact;letter-spacing:15"
   id="text265">INFORMÁTICA SG</text>
	</g>
	<g
   id="g655">
		<g
   id="g440">
			<linearGradient
   id="SVGID_1_"
   gradientUnits="userSpaceOnUse"
   x1="869.276"
   y1="-282.90961"
   x2="1406.5099"
   y2="-754.96417">
				<stop
   offset="0"
   style="stop-color:#FFFFFF"
   id="stop269" />
				<stop
   offset="0.0835"
   style="stop-color:#C8CAE2"
   id="stop271" />
				<stop
   offset="0.1678"
   style="stop-color:#979DC8"
   id="stop273" />
				<stop
   offset="0.248"
   style="stop-color:#7178B4"
   id="stop275" />
				<stop
   offset="0.3216"
   style="stop-color:#565EA5"
   id="stop277" />
				<stop
   offset="0.3864"
   style="stop-color:#454F9C"
   id="stop279" />
				<stop
   offset="0.4355"
   style="stop-color:#3F4999"
   id="stop281" />
				<stop
   offset="1"
   style="stop-color:#28215F"
   id="stop283" />
			</linearGradient>
			<path
   class="st4"
   d="m 1346.31,-697.19 c 0,-5.45 -7.06,-7.61 -10.13,-3.12 -1.28,1.89 -1.28,4.37 0,6.25 3.07,4.49 10.13,2.31 10.13,-3.13 z"
   id="path286"
   style="fill:url(#SVGID_1_)" />
			<linearGradient
   id="SVGID_2_"
   gradientUnits="userSpaceOnUse"
   x1="857.87329"
   y1="-295.9462"
   x2="1395.0726"
   y2="-767.97028">
				<stop
   offset="0"
   style="stop-color:#FFFFFF"
   id="stop288" />
				<stop
   offset="0.0835"
   style="stop-color:#C8CAE2"
   id="stop290" />
				<stop
   offset="0.1678"
   style="stop-color:#979DC8"
   id="stop292" />
				<stop
   offset="0.248"
   style="stop-color:#7178B4"
   id="stop294" />
				<stop
   offset="0.3216"
   style="stop-color:#565EA5"
   id="stop296" />
				<stop
   offset="0.3864"
   style="stop-color:#454F9C"
   id="stop298" />
				<stop
   offset="0.4355"
   style="stop-color:#3F4999"
   id="stop300" />
				<stop
   offset="1"
   style="stop-color:#28215F"
   id="stop302" />
			</linearGradient>
			<path
   class="st5"
   d="m 1251.79,-670.28 c 11.76,0 49.89,0 95.66,0 3.24,-12.44 20.87,-12.46 24.11,0 38,0 78.77,0 113,0 -8.93,-65.96 -83.46,-103.37 -142.26,-68.63 -15.55,-31.27 -47.8,-52.77 -85.08,-52.77 -53.68,0 -97.22,44.62 -94.88,99.16 -17.35,0 -33.33,5.29 -46.5,14.28 h 38.08 c 1.4,-5.38 6.25,-9.37 12.05,-9.37 6.89,0 12.5,5.6 12.5,12.5 0,6.89 -5.61,12.49 -12.5,12.49 -5.8,0 -10.65,-4 -12.05,-9.37 h -46.09 c -7.13,6.29 -13.14,13.77 -17.73,22.14 h 85.84 c 14.08,-9.61 59.45,-40.57 73.94,-50.46 27.34,0 52.29,0 78.84,0 1.4,-5.37 6.25,-9.37 12.05,-9.37 6.89,0 12.5,5.61 12.5,12.5 0,6.89 -5.61,12.5 -12.5,12.5 -5.81,0 -10.66,-4 -12.05,-9.37 h -76.91 c -10.83,7.39 -63.25,43.17 -73.94,50.47 -17.61,0 -61.79,0 -90.85,0 -2.54,5.74 -4.44,11.8 -5.61,18.12 h 107.09 c 57.57,-40.78 51.66,-36.59 63.29,-44.82 z"
   id="path305"
   style="fill:url(#SVGID_2_)" />
			<linearGradient
   id="SVGID_3_"
   gradientUnits="userSpaceOnUse"
   x1="804.10022"
   y1="-357.15829"
   x2="1341.291"
   y2="-829.17499">
				<stop
   offset="0"
   style="stop-color:#FFFFFF"
   id="stop307" />
				<stop
   offset="0.0835"
   style="stop-color:#C8CAE2"
   id="stop309" />
				<stop
   offset="0.1678"
   style="stop-color:#979DC8"
   id="stop311" />
				<stop
   offset="0.248"
   style="stop-color:#7178B4"
   id="stop313" />
				<stop
   offset="0.3216"
   style="stop-color:#565EA5"
   id="stop315" />
				<stop
   offset="0.3864"
   style="stop-color:#454F9C"
   id="stop317" />
				<stop
   offset="0.4355"
   style="stop-color:#3F4999"
   id="stop319" />
				<stop
   offset="1"
   style="stop-color:#28215F"
   id="stop321" />
			</linearGradient>
			<path
   class="st6"
   d="m 1171.51,-675.11 c 0,-5.46 -7.07,-7.61 -10.13,-3.12 -1.29,1.89 -1.29,4.36 0,6.25 3.06,4.49 10.13,2.31 10.13,-3.13 z"
   id="path324"
   style="fill:url(#SVGID_3_)" />
			<linearGradient
   id="SVGID_4_"
   gradientUnits="userSpaceOnUse"
   x1="941.5061"
   y1="-200.7627"
   x2="1478.7086"
   y2="-672.78967">
				<stop
   offset="0"
   style="stop-color:#FFFFFF"
   id="stop326" />
				<stop
   offset="0.0835"
   style="stop-color:#C8CAE2"
   id="stop328" />
				<stop
   offset="0.1678"
   style="stop-color:#979DC8"
   id="stop330" />
				<stop
   offset="0.248"
   style="stop-color:#7178B4"
   id="stop332" />
				<stop
   offset="0.3216"
   style="stop-color:#565EA5"
   id="stop334" />
				<stop
   offset="0.3864"
   style="stop-color:#454F9C"
   id="stop336" />
				<stop
   offset="0.4355"
   style="stop-color:#3F4999"
   id="stop338" />
				<stop
   offset="1"
   style="stop-color:#28215F"
   id="stop340" />
			</linearGradient>
			<path
   class="st7"
   d="m 1348.83,-562.2 c -3.73,-1.38 -7.46,1.42 -7.46,5.19 0,3.06 2.48,5.55 5.55,5.55 6.15,0 7.69,-8.61 1.91,-10.74 z"
   id="path343"
   style="fill:url(#SVGID_4_)" />
			<linearGradient
   id="SVGID_5_"
   gradientUnits="userSpaceOnUse"
   x1="841.34778"
   y1="-314.7431"
   x2="1378.5569"
   y2="-786.77588">
				<stop
   offset="0"
   style="stop-color:#FFFFFF"
   id="stop345" />
				<stop
   offset="0.0835"
   style="stop-color:#C8CAE2"
   id="stop347" />
				<stop
   offset="0.1678"
   style="stop-color:#979DC8"
   id="stop349" />
				<stop
   offset="0.248"
   style="stop-color:#7178B4"
   id="stop351" />
				<stop
   offset="0.3216"
   style="stop-color:#565EA5"
   id="stop353" />
				<stop
   offset="0.3864"
   style="stop-color:#454F9C"
   id="stop355" />
				<stop
   offset="0.4355"
   style="stop-color:#3F4999"
   id="stop357" />
				<stop
   offset="1"
   style="stop-color:#28215F"
   id="stop359" />
			</linearGradient>
			<path
   class="st8"
   d="m 1155.41,-595.58 c 0,5.45 7.07,7.62 10.13,3.13 1.29,-1.89 1.29,-4.36 0,-6.25 -3.07,-4.49 -10.13,-2.32 -10.13,3.12 z"
   id="path362"
   style="fill:url(#SVGID_5_)" />
			<linearGradient
   id="SVGID_6_"
   gradientUnits="userSpaceOnUse"
   x1="931.87042"
   y1="-211.67909"
   x2="1469.1"
   y2="-683.72992">
				<stop
   offset="0"
   style="stop-color:#FFFFFF"
   id="stop364" />
				<stop
   offset="0.0835"
   style="stop-color:#C8CAE2"
   id="stop366" />
				<stop
   offset="0.1678"
   style="stop-color:#979DC8"
   id="stop368" />
				<stop
   offset="0.248"
   style="stop-color:#7178B4"
   id="stop370" />
				<stop
   offset="0.3216"
   style="stop-color:#565EA5"
   id="stop372" />
				<stop
   offset="0.3864"
   style="stop-color:#454F9C"
   id="stop374" />
				<stop
   offset="0.4355"
   style="stop-color:#3F4999"
   id="stop376" />
				<stop
   offset="1"
   style="stop-color:#28215F"
   id="stop378" />
			</linearGradient>
			<path
   class="st9"
   d="m 1417.63,-644.06 c -3.06,0 -5.55,2.48 -5.55,5.55 0,3.07 2.48,5.55 5.55,5.55 3.07,0 5.55,-2.48 5.55,-5.55 0,-3.06 -2.48,-5.55 -5.55,-5.55 z"
   id="path381"
   style="fill:url(#SVGID_6_)" />
			<linearGradient
   id="SVGID_7_"
   gradientUnits="userSpaceOnUse"
   x1="907.73981"
   y1="-239.19431"
   x2="1444.9417"
   y2="-711.2207">
				<stop
   offset="0"
   style="stop-color:#FFFFFF"
   id="stop383" />
				<stop
   offset="0.0835"
   style="stop-color:#C8CAE2"
   id="stop385" />
				<stop
   offset="0.1678"
   style="stop-color:#979DC8"
   id="stop387" />
				<stop
   offset="0.248"
   style="stop-color:#7178B4"
   id="stop389" />
				<stop
   offset="0.3216"
   style="stop-color:#565EA5"
   id="stop391" />
				<stop
   offset="0.3864"
   style="stop-color:#454F9C"
   id="stop393" />
				<stop
   offset="0.4355"
   style="stop-color:#3F4999"
   id="stop395" />
				<stop
   offset="1"
   style="stop-color:#28215F"
   id="stop397" />
			</linearGradient>
			<path
   class="st10"
   d="m 1347.45,-664.04 c -40.99,0 -74.96,0 -93.67,0 -3.18,2.25 -60.2,42.6 -63.3,44.8 -36.97,0 -73.39,0 -110.01,0 -3.81,35.59 15.5,68.13 46,82.84 11.32,0 361.89,0 379,0 15.81,-12.03 24.54,-28.61 26.92,-45.8 h -144.6 c -26.15,18.56 -29.23,20.75 -29.23,20.75 3.21,8.4 -3.13,16.93 -11.64,16.93 -6.89,0 -12.5,-5.61 -12.5,-12.5 0,-10.55 12.32,-16.42 20.5,-9.51 6.31,-4.48 12.35,-8.77 30.87,-21.91 16.32,0 103.53,0 147.17,0 0.31,-6.46 -0.24,-12.94 -1.66,-19.23 h -195.63 c -6.63,4.97 -21.24,15.94 -31.06,23.32 3.41,8.26 -2.72,17.25 -11.55,17.25 -6.89,0 -12.5,-5.6 -12.5,-12.5 0,-10.36 11.98,-16.32 20.25,-9.72 4.51,-3.39 13.21,-9.92 32.77,-24.6 16.46,0 149.78,0 195.98,0 -2.49,-7.69 -6.3,-14.98 -11.36,-21.47 -20.62,0 -53.29,0 -88.52,0 0,0 0,-0.01 0,-0.01 -3.23,12.46 -20.88,12.48 -24.12,0 0,0.01 0,0.01 0,0.01 -61.5,0 -123.98,0 -138.98,0 -13.41,9.48 -47.24,33.39 -60.75,42.93 -16.52,0 -21.6,0 -32.84,0 -1.4,5.37 -6.25,9.37 -12.05,9.37 -6.89,0 -12.5,-5.6 -12.5,-12.5 0,-6.89 5.61,-12.5 12.5,-12.5 5.8,0 10.65,4 12.05,9.37 h 30.85 c 22.04,-15.57 39.17,-27.68 60.75,-42.93 22.57,0 82.81,0 140.97,0 0,0.01 0,0.01 0,0.01 3.23,-12.46 20.88,-12.48 24.12,0 0,0 0,-0.01 0,-0.01 32.74,0 62.93,0 82.99,0 -7.26,-7.27 -16.35,-13.13 -27.21,-16.79 -0.03,-1.89 -0.14,-3.76 -0.27,-5.61 -38.58,0 -77.97,0 -113.65,0 -3.23,12.5 -20.86,12.44 -24.09,0.01 z"
   id="path400"
   style="fill:url(#SVGID_7_)" />
			<linearGradient
   id="SVGID_8_"
   gradientUnits="userSpaceOnUse"
   x1="892.41052"
   y1="-256.73691"
   x2="1429.5558"
   y2="-728.71362">
				<stop
   offset="0"
   style="stop-color:#FFFFFF"
   id="stop402" />
				<stop
   offset="0.0835"
   style="stop-color:#C8CAE2"
   id="stop404" />
				<stop
   offset="0.1678"
   style="stop-color:#979DC8"
   id="stop406" />
				<stop
   offset="0.248"
   style="stop-color:#7178B4"
   id="stop408" />
				<stop
   offset="0.3216"
   style="stop-color:#565EA5"
   id="stop410" />
				<stop
   offset="0.3864"
   style="stop-color:#454F9C"
   id="stop412" />
				<stop
   offset="0.4355"
   style="stop-color:#3F4999"
   id="stop414" />
				<stop
   offset="1"
   style="stop-color:#28215F"
   id="stop416" />
			</linearGradient>
			<path
   class="st11"
   d="m 1354.92,-670.28 c -1.29,1.89 -1.28,4.37 0,6.25 2.21,3.24 6.96,3.23 9.17,0 1.29,-1.89 1.29,-4.36 0,-6.25 -2.21,-3.24 -6.96,-3.23 -9.17,0 z"
   id="path419"
   style="fill:url(#SVGID_8_)" />
			<linearGradient
   id="SVGID_9_"
   gradientUnits="userSpaceOnUse"
   x1="906.84808"
   y1="-240.21181"
   x2="1444.0471"
   y2="-712.23572">
				<stop
   offset="0"
   style="stop-color:#FFFFFF"
   id="stop421" />
				<stop
   offset="0.0835"
   style="stop-color:#C8CAE2"
   id="stop423" />
				<stop
   offset="0.1678"
   style="stop-color:#979DC8"
   id="stop425" />
				<stop
   offset="0.248"
   style="stop-color:#7178B4"
   id="stop427" />
				<stop
   offset="0.3216"
   style="stop-color:#565EA5"
   id="stop429" />
				<stop
   offset="0.3864"
   style="stop-color:#454F9C"
   id="stop431" />
				<stop
   offset="0.4355"
   style="stop-color:#3F4999"
   id="stop433" />
				<stop
   offset="1"
   style="stop-color:#28215F"
   id="stop435" />
			</linearGradient>
			<path
   class="st12"
   d="m 1294.83,-584.83 c -3.72,-1.26 -7.32,1.55 -7.32,5.24 0,3.06 2.48,5.55 5.55,5.55 6.29,-0.01 7.64,-8.8 1.77,-10.79 z"
   id="path438"
   style="fill:url(#SVGID_9_)" />
		</g>
		<path
   d="m 1509.03,-675.3 c -11.12,-71.78 -86.06,-120.02 -157.38,-95.37 -65.59,-84.2 -203.46,-44.38 -217.77,51.59 -45.43,16.08 -78.93,58.4 -78.93,108.68 0,40.86 23.79,78.75 60.61,96.52 l 5.15,2.48 h 393.15 l 6.71,-5.11 c 56.22,-42.8 46.73,-127.12 -11.54,-158.79 z m 3.95,148.85 -3.35,2.55 h -386.07 c -37.6,-18.14 -56.12,-52.27 -56.12,-86.5 0,-48 37.08,-89.11 77.84,-98.03 6.45,-95.1 144.94,-134.59 201.86,-47.05 67.4,-29.87 143.57,16.48 150.31,88.37 55.56,25.14 66.04,102.22 15.53,140.66 z"
   id="path442" />
		<path
   class="st13"
   d="m 1121.3,-514.03 -4.6,-2.22 c -85.33,-41.17 -77.59,-166.51 19.55,-200.87 14.26,-95.7 148.43,-135.16 214.48,-50.44 72.07,-24.92 144.7,21.64 155.89,93.96 59.3,32.21 66.19,114.01 12.34,155.01 l -6,4.57 H 1121.3 Z m 21.51,-196.52 c -38.68,9.46 -78,48.98 -78,100.16 0,37.07 20.26,70.87 58.15,89.14 h 387.56 l 4.06,-3.09 c 51.34,-39.07 41.91,-117.71 -14.66,-144.51 -7.66,-70.97 -82.93,-118.83 -151.8,-89.9 -58.78,-86.74 -197.06,-46.97 -205.31,48.2 z"
   id="path444" />
		<g
   id="g653">
			<g
   id="g467">
				<linearGradient
   id="SVGID_10_"
   gradientUnits="userSpaceOnUse"
   x1="1510.681"
   y1="-865.92542"
   x2="1131.3646"
   y2="-489.24261">
					<stop
   offset="0"
   style="stop-color:#FFFFFF"
   id="stop446" />
					<stop
   offset="5.061304e-03"
   style="stop-color:#FBFDFE"
   id="stop448" />
					<stop
   offset="0.0914"
   style="stop-color:#C0DEF1"
   id="stop450" />
					<stop
   offset="0.1746"
   style="stop-color:#8FC4E6"
   id="stop452" />
					<stop
   offset="0.2527"
   style="stop-color:#69B0DE"
   id="stop454" />
					<stop
   offset="0.3245"
   style="stop-color:#4EA2D8"
   id="stop456" />
					<stop
   offset="0.3876"
   style="stop-color:#3D99D4"
   id="stop458" />
					<stop
   offset="0.4355"
   style="stop-color:#3796D3"
   id="stop460" />
					<stop
   offset="1"
   style="stop-color:#342E7E"
   id="stop462" />
				</linearGradient>
				<path
   class="st14"
   d="m 1340.7,-692.96 c -3.32,0 -5.35,-3.8 -3.43,-6.61 2.35,-3.45 7.73,-1.73 7.73,2.38 -0.01,2.67 -2.19,4.23 -4.3,4.23 z"
   id="path465"
   style="fill:url(#SVGID_10_)" />
			</g>
			<g
   id="g490">
				<linearGradient
   id="SVGID_11_"
   gradientUnits="userSpaceOnUse"
   x1="1498.7648"
   y1="-877.93793"
   x2="1119.4904"
   y2="-501.29691">
					<stop
   offset="0"
   style="stop-color:#FFFFFF"
   id="stop469" />
					<stop
   offset="5.061304e-03"
   style="stop-color:#FBFDFE"
   id="stop471" />
					<stop
   offset="0.0914"
   style="stop-color:#C0DEF1"
   id="stop473" />
					<stop
   offset="0.1746"
   style="stop-color:#8FC4E6"
   id="stop475" />
					<stop
   offset="0.2527"
   style="stop-color:#69B0DE"
   id="stop477" />
					<stop
   offset="0.3245"
   style="stop-color:#4EA2D8"
   id="stop479" />
					<stop
   offset="0.3876"
   style="stop-color:#3D99D4"
   id="stop481" />
					<stop
   offset="0.4355"
   style="stop-color:#3796D3"
   id="stop483" />
					<stop
   offset="1"
   style="stop-color:#342E7E"
   id="stop485" />
				</linearGradient>
				<path
   class="st15"
   d="m 1083,-626.8 c 1.1,-5.31 2.74,-10.51 4.88,-15.49 h 90.39 c 0,0 62.41,-42.6 73.94,-50.47 h 75.53 c 5.01,14.72 26.85,11.09 26.85,-4.44 0,-15.52 -21.83,-19.17 -26.85,-4.44 h -78.27 c 0,0 -59.49,40.6 -73.94,50.46 h -83.18 c 4.27,-7.29 9.63,-13.84 15.97,-19.5 h 44.61 c 5.01,14.71 26.85,11.09 26.85,-4.44 0,-15.52 -21.84,-19.17 -26.85,-4.44 h -32.62 c 13.66,-8.27 27.88,-11.65 43.39,-11.65 -2.48,-57.5 42.31,-99.16 93.51,-99.16 34.28,0 67.07,18.18 84.54,53.31 60.17,-35.54 131.7,2.34 141.29,65.46 h -110.5 c -4.16,-12.48 -21.92,-12.47 -26.07,0 h -95.1 l -63.3,44.8 z"
   id="path488"
   style="fill:url(#SVGID_11_)" />
			</g>
			<g
   id="g513">
				<linearGradient
   id="SVGID_12_"
   gradientUnits="userSpaceOnUse"
   x1="1434.1769"
   y1="-941.46448"
   x2="1055.9659"
   y2="-565.87958">
					<stop
   offset="0"
   style="stop-color:#FFFFFF"
   id="stop492" />
					<stop
   offset="5.061304e-03"
   style="stop-color:#FBFDFE"
   id="stop494" />
					<stop
   offset="0.0914"
   style="stop-color:#C0DEF1"
   id="stop496" />
					<stop
   offset="0.1746"
   style="stop-color:#8FC4E6"
   id="stop498" />
					<stop
   offset="0.2527"
   style="stop-color:#69B0DE"
   id="stop500" />
					<stop
   offset="0.3245"
   style="stop-color:#4EA2D8"
   id="stop502" />
					<stop
   offset="0.3876"
   style="stop-color:#3D99D4"
   id="stop504" />
					<stop
   offset="0.4355"
   style="stop-color:#3796D3"
   id="stop506" />
					<stop
   offset="1"
   style="stop-color:#342E7E"
   id="stop508" />
				</linearGradient>
				<path
   class="st16"
   d="m 1162.46,-677.49 c 2.36,-3.45 7.73,-1.74 7.73,2.38 0,1.55 -0.72,2.53 -1.32,3.08 -3.79,3.46 -9.21,-1.36 -6.41,-5.46 z"
   id="path511"
   style="fill:url(#SVGID_12_)" />
			</g>
			<g
   id="g536">
				<linearGradient
   id="SVGID_13_"
   gradientUnits="userSpaceOnUse"
   x1="1584.7034"
   y1="-793.1181"
   x2="1204.0046"
   y2="-415.06271">
					<stop
   offset="0"
   style="stop-color:#FFFFFF"
   id="stop515" />
					<stop
   offset="5.061304e-03"
   style="stop-color:#FBFDFE"
   id="stop517" />
					<stop
   offset="0.0914"
   style="stop-color:#C0DEF1"
   id="stop519" />
					<stop
   offset="0.1746"
   style="stop-color:#8FC4E6"
   id="stop521" />
					<stop
   offset="0.2527"
   style="stop-color:#69B0DE"
   id="stop523" />
					<stop
   offset="0.3245"
   style="stop-color:#4EA2D8"
   id="stop525" />
					<stop
   offset="0.3876"
   style="stop-color:#3D99D4"
   id="stop527" />
					<stop
   offset="0.4355"
   style="stop-color:#3796D3"
   id="stop529" />
					<stop
   offset="1"
   style="stop-color:#342E7E"
   id="stop531" />
				</linearGradient>
				<path
   class="st17"
   d="m 1342.68,-557.01 c 0,-2.33 1.88,-4.23 4.19,-4.23 2.54,0 4.69,2.13 4.18,4.97 -0.91,5.16 -8.37,4.34 -8.37,-0.74 z"
   id="path534"
   style="fill:url(#SVGID_13_)" />
			</g>
			<g
   id="g559">
				<linearGradient
   id="SVGID_14_"
   gradientUnits="userSpaceOnUse"
   x1="1473.9755"
   y1="-906.45599"
   x2="1092.5092"
   y2="-527.63818">
					<stop
   offset="0"
   style="stop-color:#FFFFFF"
   id="stop538" />
					<stop
   offset="5.061304e-03"
   style="stop-color:#FBFDFE"
   id="stop540" />
					<stop
   offset="0.0914"
   style="stop-color:#C0DEF1"
   id="stop542" />
					<stop
   offset="0.1746"
   style="stop-color:#8FC4E6"
   id="stop544" />
					<stop
   offset="0.2527"
   style="stop-color:#69B0DE"
   id="stop546" />
					<stop
   offset="0.3245"
   style="stop-color:#4EA2D8"
   id="stop548" />
					<stop
   offset="0.3876"
   style="stop-color:#3D99D4"
   id="stop550" />
					<stop
   offset="0.4355"
   style="stop-color:#3796D3"
   id="stop552" />
					<stop
   offset="1"
   style="stop-color:#342E7E"
   id="stop554" />
				</linearGradient>
				<path
   class="st18"
   d="m 1161.02,-591.35 c -5.71,0 -5.72,-8.46 0,-8.46 1.4,0 2.62,0.66 3.43,1.85 1.92,2.81 -0.12,6.61 -3.43,6.61 z"
   id="path557"
   style="fill:url(#SVGID_14_)" />
			</g>
			<g
   id="g582">
				<linearGradient
   id="SVGID_15_"
   gradientUnits="userSpaceOnUse"
   x1="1578.1241"
   y1="-797.88391"
   x2="1198.9554"
   y2="-421.3479">
					<stop
   offset="0"
   style="stop-color:#FFFFFF"
   id="stop561" />
					<stop
   offset="5.061304e-03"
   style="stop-color:#FBFDFE"
   id="stop563" />
					<stop
   offset="0.0914"
   style="stop-color:#C0DEF1"
   id="stop565" />
					<stop
   offset="0.1746"
   style="stop-color:#8FC4E6"
   id="stop567" />
					<stop
   offset="0.2527"
   style="stop-color:#69B0DE"
   id="stop569" />
					<stop
   offset="0.3245"
   style="stop-color:#4EA2D8"
   id="stop571" />
					<stop
   offset="0.3876"
   style="stop-color:#3D99D4"
   id="stop573" />
					<stop
   offset="0.4355"
   style="stop-color:#3796D3"
   id="stop575" />
					<stop
   offset="1"
   style="stop-color:#342E7E"
   id="stop577" />
				</linearGradient>
				<path
   class="st19"
   d="m 1417.63,-634.28 c -2.33,0 -4.23,-1.9 -4.23,-4.23 0,-2.33 1.9,-4.23 4.23,-4.23 2.33,0 4.23,1.9 4.23,4.23 0.01,2.33 -1.89,4.23 -4.23,4.23 z"
   id="path580"
   style="fill:url(#SVGID_15_)" />
			</g>
			<g
   id="g605">
				<linearGradient
   id="SVGID_16_"
   gradientUnits="userSpaceOnUse"
   x1="1546.9772"
   y1="-829.29218"
   x2="1167.7579"
   y2="-452.70599">
					<stop
   offset="0"
   style="stop-color:#FFFFFF"
   id="stop584" />
					<stop
   offset="5.061304e-03"
   style="stop-color:#FBFDFE"
   id="stop586" />
					<stop
   offset="0.0914"
   style="stop-color:#C0DEF1"
   id="stop588" />
					<stop
   offset="0.1746"
   style="stop-color:#8FC4E6"
   id="stop590" />
					<stop
   offset="0.2527"
   style="stop-color:#69B0DE"
   id="stop592" />
					<stop
   offset="0.3245"
   style="stop-color:#4EA2D8"
   id="stop594" />
					<stop
   offset="0.3876"
   style="stop-color:#3D99D4"
   id="stop596" />
					<stop
   offset="0.4355"
   style="stop-color:#3796D3"
   id="stop598" />
					<stop
   offset="1"
   style="stop-color:#342E7E"
   id="stop600" />
				</linearGradient>
				<path
   class="st20"
   d="m 1126.77,-537.7 c -30.19,-14.7 -48.2,-46.79 -45.11,-80.21 h 109.23 l 63.3,-44.8 h 92.27 c 4.15,12.46 21.92,12.49 26.07,0 h 111.43 c 0.17,2.67 0.18,3.93 0.2,5.24 9.33,3.14 17.5,7.49 25.23,14.52 h -78.72 c -4.16,-12.48 -21.92,-12.47 -26.07,0 h -140.4 l -60.75,42.93 H 1174 c -5.01,-14.72 -26.84,-11.09 -26.84,4.44 0,15.54 21.84,19.15 26.84,4.44 h 32.28 l 60.75,-42.93 h 137.58 c 4.16,12.48 21.92,12.47 26.07,0 h 86.89 c 4.35,5.69 7.76,12.01 10.17,18.83 h -194.58 l -32.34,24.27 c -9.13,-6.3 -21.56,0.31 -21.56,11.37 0,7.62 6.2,13.81 13.81,13.81 9.38,0 16.05,-9.21 13.12,-18.1 l 29.93,-22.47 h 194.13 c 1.14,5.42 1.63,10.99 1.46,16.6 h -146.33 l -30.41,21.59 c -9.11,-6.67 -21.86,-0.03 -21.86,11.16 0,13.48 17.51,18.99 25.21,7.8 2.4,-3.48 3.04,-7.7 1.82,-11.73 1.98,-1.4 8.45,-6 28.08,-19.93 h 142.65 c -2.75,17.14 -11.88,32.41 -25.83,43.17 z"
   id="path603"
   style="fill:url(#SVGID_16_)" />
			</g>
			<g
   id="g628">
				<linearGradient
   id="SVGID_17_"
   gradientUnits="userSpaceOnUse"
   x1="1534.2892"
   y1="-840.74268"
   x2="1156.4773"
   y2="-465.55399">
					<stop
   offset="0"
   style="stop-color:#FFFFFF"
   id="stop607" />
					<stop
   offset="5.061304e-03"
   style="stop-color:#FBFDFE"
   id="stop609" />
					<stop
   offset="0.0914"
   style="stop-color:#C0DEF1"
   id="stop611" />
					<stop
   offset="0.1746"
   style="stop-color:#8FC4E6"
   id="stop613" />
					<stop
   offset="0.2527"
   style="stop-color:#69B0DE"
   id="stop615" />
					<stop
   offset="0.3245"
   style="stop-color:#4EA2D8"
   id="stop617" />
					<stop
   offset="0.3876"
   style="stop-color:#3D99D4"
   id="stop619" />
					<stop
   offset="0.4355"
   style="stop-color:#3796D3"
   id="stop621" />
					<stop
   offset="1"
   style="stop-color:#342E7E"
   id="stop623" />
				</linearGradient>
				<path
   class="st21"
   d="m 1359.5,-662.93 c -3.38,0 -5.42,-3.79 -3.49,-6.62 3.18,-4.65 10.12,0.18 6.99,4.77 -0.81,1.18 -2.08,1.85 -3.5,1.85 z"
   id="path626"
   style="fill:url(#SVGID_17_)" />
			</g>
			<g
   id="g651">
				<linearGradient
   id="SVGID_18_"
   gradientUnits="userSpaceOnUse"
   x1="1547.433"
   y1="-832.23132"
   x2="1165.6511"
   y2="-453.10019">
					<stop
   offset="0"
   style="stop-color:#FFFFFF"
   id="stop630" />
					<stop
   offset="5.061304e-03"
   style="stop-color:#FBFDFE"
   id="stop632" />
					<stop
   offset="0.0914"
   style="stop-color:#C0DEF1"
   id="stop634" />
					<stop
   offset="0.1746"
   style="stop-color:#8FC4E6"
   id="stop636" />
					<stop
   offset="0.2527"
   style="stop-color:#69B0DE"
   id="stop638" />
					<stop
   offset="0.3245"
   style="stop-color:#4EA2D8"
   id="stop640" />
					<stop
   offset="0.3876"
   style="stop-color:#3D99D4"
   id="stop642" />
					<stop
   offset="0.4355"
   style="stop-color:#3796D3"
   id="stop644" />
					<stop
   offset="1"
   style="stop-color:#342E7E"
   id="stop646" />
				</linearGradient>
				<path
   class="st22"
   d="m 1288.83,-579.6 c 0,-6.08 9.36,-5.28 8.37,0.72 -0.85,5.16 -8.37,4.4 -8.37,-0.72 z"
   id="path649"
   style="fill:url(#SVGID_18_)" />
			</g>
		</g>
	</g>
	<g
   id="g1043">
		<g
   id="g828">
			<linearGradient
   id="SVGID_19_"
   gradientUnits="userSpaceOnUse"
   x1="869.276"
   y1="586.96802"
   x2="1406.5099"
   y2="114.9133">
				<stop
   offset="0"
   style="stop-color:#FFFFFF"
   id="stop657" />
				<stop
   offset="0.0835"
   style="stop-color:#C8CAE2"
   id="stop659" />
				<stop
   offset="0.1678"
   style="stop-color:#979DC8"
   id="stop661" />
				<stop
   offset="0.248"
   style="stop-color:#7178B4"
   id="stop663" />
				<stop
   offset="0.3216"
   style="stop-color:#565EA5"
   id="stop665" />
				<stop
   offset="0.3864"
   style="stop-color:#454F9C"
   id="stop667" />
				<stop
   offset="0.4355"
   style="stop-color:#3F4999"
   id="stop669" />
				<stop
   offset="1"
   style="stop-color:#28215F"
   id="stop671" />
			</linearGradient>
			<path
   class="st23"
   d="m 1346.31,172.69 c 0,-5.45 -7.06,-7.61 -10.13,-3.12 -1.28,1.89 -1.28,4.37 0,6.25 3.07,4.48 10.13,2.31 10.13,-3.13 z"
   id="path674"
   style="fill:url(#SVGID_19_)" />
			<linearGradient
   id="SVGID_20_"
   gradientUnits="userSpaceOnUse"
   x1="857.87329"
   y1="573.9314"
   x2="1395.0726"
   y2="101.9072">
				<stop
   offset="0"
   style="stop-color:#FFFFFF"
   id="stop676" />
				<stop
   offset="0.0835"
   style="stop-color:#C8CAE2"
   id="stop678" />
				<stop
   offset="0.1678"
   style="stop-color:#979DC8"
   id="stop680" />
				<stop
   offset="0.248"
   style="stop-color:#7178B4"
   id="stop682" />
				<stop
   offset="0.3216"
   style="stop-color:#565EA5"
   id="stop684" />
				<stop
   offset="0.3864"
   style="stop-color:#454F9C"
   id="stop686" />
				<stop
   offset="0.4355"
   style="stop-color:#3F4999"
   id="stop688" />
				<stop
   offset="1"
   style="stop-color:#28215F"
   id="stop690" />
			</linearGradient>
			<path
   class="st24"
   d="m 1251.79,199.59 c 11.76,0 49.89,0 95.66,0 3.24,-12.44 20.87,-12.46 24.11,0 38,0 78.77,0 113,0 -8.93,-65.96 -83.46,-103.37 -142.26,-68.63 -15.55,-31.27 -47.8,-52.77 -85.08,-52.77 -53.68,0 -97.22,44.62 -94.88,99.16 -17.35,0 -33.33,5.29 -46.5,14.28 h 38.08 c 1.4,-5.38 6.25,-9.37 12.05,-9.37 6.89,0 12.5,5.6 12.5,12.5 0,6.89 -5.61,12.49 -12.5,12.49 -5.8,0 -10.65,-4 -12.05,-9.37 h -46.09 c -7.13,6.29 -13.14,13.77 -17.73,22.14 h 85.84 c 14.08,-9.61 59.45,-40.57 73.94,-50.46 27.34,0 52.29,0 78.84,0 1.4,-5.37 6.25,-9.37 12.05,-9.37 6.89,0 12.5,5.61 12.5,12.5 0,6.89 -5.61,12.5 -12.5,12.5 -5.81,0 -10.66,-4 -12.05,-9.37 h -76.91 c -10.83,7.39 -63.25,43.17 -73.94,50.47 -17.61,0 -61.79,0 -90.85,0 -2.54,5.74 -4.44,11.8 -5.61,18.12 h 107.09 c 57.57,-40.77 51.66,-36.59 63.29,-44.82 z"
   id="path693"
   style="fill:url(#SVGID_20_)" />
			<linearGradient
   id="SVGID_21_"
   gradientUnits="userSpaceOnUse"
   x1="804.10022"
   y1="512.7193"
   x2="1341.291"
   y2="40.702499">
				<stop
   offset="0"
   style="stop-color:#FFFFFF"
   id="stop695" />
				<stop
   offset="0.0835"
   style="stop-color:#C8CAE2"
   id="stop697" />
				<stop
   offset="0.1678"
   style="stop-color:#979DC8"
   id="stop699" />
				<stop
   offset="0.248"
   style="stop-color:#7178B4"
   id="stop701" />
				<stop
   offset="0.3216"
   style="stop-color:#565EA5"
   id="stop703" />
				<stop
   offset="0.3864"
   style="stop-color:#454F9C"
   id="stop705" />
				<stop
   offset="0.4355"
   style="stop-color:#3F4999"
   id="stop707" />
				<stop
   offset="1"
   style="stop-color:#28215F"
   id="stop709" />
			</linearGradient>
			<path
   class="st25"
   d="m 1171.51,194.77 c 0,-5.46 -7.07,-7.61 -10.13,-3.12 -1.29,1.89 -1.29,4.36 0,6.25 3.06,4.48 10.13,2.31 10.13,-3.13 z"
   id="path712"
   style="fill:url(#SVGID_21_)" />
			<linearGradient
   id="SVGID_22_"
   gradientUnits="userSpaceOnUse"
   x1="941.5061"
   y1="669.11493"
   x2="1478.7086"
   y2="197.08791">
				<stop
   offset="0"
   style="stop-color:#FFFFFF"
   id="stop714" />
				<stop
   offset="0.0835"
   style="stop-color:#C8CAE2"
   id="stop716" />
				<stop
   offset="0.1678"
   style="stop-color:#979DC8"
   id="stop718" />
				<stop
   offset="0.248"
   style="stop-color:#7178B4"
   id="stop720" />
				<stop
   offset="0.3216"
   style="stop-color:#565EA5"
   id="stop722" />
				<stop
   offset="0.3864"
   style="stop-color:#454F9C"
   id="stop724" />
				<stop
   offset="0.4355"
   style="stop-color:#3F4999"
   id="stop726" />
				<stop
   offset="1"
   style="stop-color:#28215F"
   id="stop728" />
			</linearGradient>
			<path
   class="st26"
   d="m 1348.83,307.68 c -3.73,-1.38 -7.46,1.42 -7.46,5.19 0,3.06 2.48,5.55 5.55,5.55 6.15,0 7.69,-8.61 1.91,-10.74 z"
   id="path731"
   style="fill:url(#SVGID_22_)" />
			<linearGradient
   id="SVGID_23_"
   gradientUnits="userSpaceOnUse"
   x1="841.34778"
   y1="555.1344"
   x2="1378.5569"
   y2="83.101601">
				<stop
   offset="0"
   style="stop-color:#FFFFFF"
   id="stop733" />
				<stop
   offset="0.0835"
   style="stop-color:#C8CAE2"
   id="stop735" />
				<stop
   offset="0.1678"
   style="stop-color:#979DC8"
   id="stop737" />
				<stop
   offset="0.248"
   style="stop-color:#7178B4"
   id="stop739" />
				<stop
   offset="0.3216"
   style="stop-color:#565EA5"
   id="stop741" />
				<stop
   offset="0.3864"
   style="stop-color:#454F9C"
   id="stop743" />
				<stop
   offset="0.4355"
   style="stop-color:#3F4999"
   id="stop745" />
				<stop
   offset="1"
   style="stop-color:#28215F"
   id="stop747" />
			</linearGradient>
			<path
   class="st27"
   d="m 1155.41,274.3 c 0,5.45 7.07,7.62 10.13,3.13 1.29,-1.89 1.29,-4.36 0,-6.25 -3.07,-4.5 -10.13,-2.32 -10.13,3.12 z"
   id="path750"
   style="fill:url(#SVGID_23_)" />
			<linearGradient
   id="SVGID_24_"
   gradientUnits="userSpaceOnUse"
   x1="931.87042"
   y1="658.19849"
   x2="1469.1"
   y2="186.14771">
				<stop
   offset="0"
   style="stop-color:#FFFFFF"
   id="stop752" />
				<stop
   offset="0.0835"
   style="stop-color:#C8CAE2"
   id="stop754" />
				<stop
   offset="0.1678"
   style="stop-color:#979DC8"
   id="stop756" />
				<stop
   offset="0.248"
   style="stop-color:#7178B4"
   id="stop758" />
				<stop
   offset="0.3216"
   style="stop-color:#565EA5"
   id="stop760" />
				<stop
   offset="0.3864"
   style="stop-color:#454F9C"
   id="stop762" />
				<stop
   offset="0.4355"
   style="stop-color:#3F4999"
   id="stop764" />
				<stop
   offset="1"
   style="stop-color:#28215F"
   id="stop766" />
			</linearGradient>
			<path
   class="st28"
   d="m 1417.63,225.82 c -3.06,0 -5.55,2.48 -5.55,5.55 0,3.07 2.48,5.55 5.55,5.55 3.07,0 5.55,-2.48 5.55,-5.55 0,-3.07 -2.48,-5.55 -5.55,-5.55 z"
   id="path769"
   style="fill:url(#SVGID_24_)" />
			<linearGradient
   id="SVGID_25_"
   gradientUnits="userSpaceOnUse"
   x1="907.73981"
   y1="630.68323"
   x2="1444.9417"
   y2="158.6568">
				<stop
   offset="0"
   style="stop-color:#FFFFFF"
   id="stop771" />
				<stop
   offset="0.0835"
   style="stop-color:#C8CAE2"
   id="stop773" />
				<stop
   offset="0.1678"
   style="stop-color:#979DC8"
   id="stop775" />
				<stop
   offset="0.248"
   style="stop-color:#7178B4"
   id="stop777" />
				<stop
   offset="0.3216"
   style="stop-color:#565EA5"
   id="stop779" />
				<stop
   offset="0.3864"
   style="stop-color:#454F9C"
   id="stop781" />
				<stop
   offset="0.4355"
   style="stop-color:#3F4999"
   id="stop783" />
				<stop
   offset="1"
   style="stop-color:#28215F"
   id="stop785" />
			</linearGradient>
			<path
   class="st29"
   d="m 1347.45,205.84 c -40.99,0 -74.96,0 -93.67,0 -3.18,2.25 -60.2,42.6 -63.3,44.8 -36.97,0 -73.39,0 -110.01,0 -3.81,35.59 15.5,68.13 46,82.84 11.32,0 361.89,0 379,0 15.81,-12.03 24.54,-28.61 26.92,-45.8 h -144.6 c -26.15,18.56 -29.23,20.75 -29.23,20.75 3.21,8.4 -3.13,16.93 -11.64,16.93 -6.89,0 -12.5,-5.61 -12.5,-12.5 0,-10.55 12.32,-16.42 20.5,-9.51 6.31,-4.48 12.35,-8.77 30.87,-21.91 16.32,0 103.53,0 147.17,0 0.31,-6.46 -0.24,-12.94 -1.66,-19.23 h -195.63 c -6.63,4.97 -21.24,15.94 -31.06,23.32 3.41,8.26 -2.72,17.25 -11.55,17.25 -6.89,0 -12.5,-5.6 -12.5,-12.5 0,-10.36 11.98,-16.32 20.25,-9.72 4.51,-3.39 13.21,-9.92 32.77,-24.6 16.46,0 149.78,0 195.98,0 -2.49,-7.69 -6.3,-14.98 -11.36,-21.47 -20.62,0 -53.29,0 -88.52,0 0,0 0,-0.01 0,-0.01 -3.23,12.46 -20.88,12.48 -24.12,0 0,0.01 0,0.01 0,0.01 -61.5,0 -123.98,0 -138.98,0 -13.41,9.48 -47.24,33.39 -60.75,42.93 -16.52,0 -21.6,0 -32.84,0 -1.4,5.37 -6.25,9.37 -12.05,9.37 -6.89,0 -12.5,-5.6 -12.5,-12.5 0,-6.89 5.61,-12.5 12.5,-12.5 5.8,0 10.65,4 12.05,9.37 h 30.85 c 22.04,-15.57 39.17,-27.68 60.75,-42.93 22.57,0 82.81,0 140.97,0 0,0.01 0,0.01 0,0.01 3.23,-12.46 20.88,-12.48 24.12,0 0,0 0,-0.01 0,-0.01 32.74,0 62.93,0 82.99,0 -7.26,-7.27 -16.35,-13.13 -27.21,-16.79 -0.03,-1.89 -0.14,-3.76 -0.27,-5.61 -38.58,0 -77.97,0 -113.65,0 -3.23,12.49 -20.86,12.44 -24.09,0.01 z"
   id="path788"
   style="fill:url(#SVGID_25_)" />
			<linearGradient
   id="SVGID_26_"
   gradientUnits="userSpaceOnUse"
   x1="892.41052"
   y1="613.14062"
   x2="1429.5558"
   y2="141.16389">
				<stop
   offset="0"
   style="stop-color:#FFFFFF"
   id="stop790" />
				<stop
   offset="0.0835"
   style="stop-color:#C8CAE2"
   id="stop792" />
				<stop
   offset="0.1678"
   style="stop-color:#979DC8"
   id="stop794" />
				<stop
   offset="0.248"
   style="stop-color:#7178B4"
   id="stop796" />
				<stop
   offset="0.3216"
   style="stop-color:#565EA5"
   id="stop798" />
				<stop
   offset="0.3864"
   style="stop-color:#454F9C"
   id="stop800" />
				<stop
   offset="0.4355"
   style="stop-color:#3F4999"
   id="stop802" />
				<stop
   offset="1"
   style="stop-color:#28215F"
   id="stop804" />
			</linearGradient>
			<path
   class="st30"
   d="m 1354.92,199.59 c -1.29,1.89 -1.28,4.37 0,6.25 2.21,3.24 6.96,3.23 9.17,0 1.29,-1.89 1.29,-4.36 0,-6.25 -2.21,-3.23 -6.96,-3.23 -9.17,0 z"
   id="path807"
   style="fill:url(#SVGID_26_)" />
			<linearGradient
   id="SVGID_27_"
   gradientUnits="userSpaceOnUse"
   x1="906.84808"
   y1="629.66577"
   x2="1444.0471"
   y2="157.6418">
				<stop
   offset="0"
   style="stop-color:#FFFFFF"
   id="stop809" />
				<stop
   offset="0.0835"
   style="stop-color:#C8CAE2"
   id="stop811" />
				<stop
   offset="0.1678"
   style="stop-color:#979DC8"
   id="stop813" />
				<stop
   offset="0.248"
   style="stop-color:#7178B4"
   id="stop815" />
				<stop
   offset="0.3216"
   style="stop-color:#565EA5"
   id="stop817" />
				<stop
   offset="0.3864"
   style="stop-color:#454F9C"
   id="stop819" />
				<stop
   offset="0.4355"
   style="stop-color:#3F4999"
   id="stop821" />
				<stop
   offset="1"
   style="stop-color:#28215F"
   id="stop823" />
			</linearGradient>
			<path
   class="st31"
   d="m 1294.83,285.05 c -3.72,-1.26 -7.32,1.55 -7.32,5.24 0,3.06 2.48,5.55 5.55,5.55 6.29,-0.01 7.64,-8.81 1.77,-10.79 z"
   id="path826"
   style="fill:url(#SVGID_27_)" />
		</g>
		<path
   d="m 1509.03,194.58 c -11.12,-71.78 -86.06,-120.02 -157.38,-95.37 -65.59,-84.2 -203.46,-44.38 -217.77,51.59 -45.43,16.08 -78.93,58.4 -78.93,108.68 0,40.86 23.79,78.75 60.61,96.52 l 5.15,2.48 h 393.15 l 6.71,-5.11 c 56.22,-42.8 46.73,-127.12 -11.54,-158.79 z m 3.95,148.85 -3.35,2.55 h -386.07 c -37.6,-18.14 -56.12,-52.27 -56.12,-86.5 0,-48 37.08,-89.11 77.84,-98.03 6.45,-95.1 144.94,-134.59 201.86,-47.05 67.4,-29.87 143.57,16.48 150.31,88.37 55.56,25.14 66.04,102.22 15.53,140.66 z"
   id="path830" />
		<path
   class="st13"
   d="m 1121.3,355.85 -4.6,-2.22 c -85.33,-41.17 -77.59,-166.51 19.55,-200.87 14.26,-95.7 148.43,-135.16 214.48,-50.44 72.07,-24.92 144.7,21.64 155.89,93.96 59.3,32.21 66.19,114.01 12.34,155.01 l -6,4.57 H 1121.3 Z m 21.51,-196.52 c -38.68,9.46 -78,48.98 -78,100.16 0,37.07 20.26,70.87 58.15,89.14 h 387.56 l 4.06,-3.09 c 51.34,-39.07 41.91,-117.71 -14.66,-144.51 -7.66,-70.97 -82.93,-118.83 -151.8,-89.9 -58.78,-86.74 -197.06,-46.97 -205.31,48.2 z"
   id="path832" />
		<g
   id="g1041">
			<g
   id="g855">
				<linearGradient
   id="SVGID_28_"
   gradientUnits="userSpaceOnUse"
   x1="1510.681"
   y1="3.9521999"
   x2="1131.3646"
   y2="380.63489">
					<stop
   offset="0"
   style="stop-color:#FFFFFF"
   id="stop834" />
					<stop
   offset="5.061304e-03"
   style="stop-color:#FBFDFE"
   id="stop836" />
					<stop
   offset="0.0914"
   style="stop-color:#C0DEF1"
   id="stop838" />
					<stop
   offset="0.1746"
   style="stop-color:#8FC4E6"
   id="stop840" />
					<stop
   offset="0.2527"
   style="stop-color:#69B0DE"
   id="stop842" />
					<stop
   offset="0.3245"
   style="stop-color:#4EA2D8"
   id="stop844" />
					<stop
   offset="0.3876"
   style="stop-color:#3D99D4"
   id="stop846" />
					<stop
   offset="0.4355"
   style="stop-color:#3796D3"
   id="stop848" />
					<stop
   offset="1"
   style="stop-color:#342E7E"
   id="stop850" />
				</linearGradient>
				<path
   class="st32"
   d="m 1340.7,176.92 c -3.32,0 -5.35,-3.8 -3.43,-6.61 2.35,-3.45 7.73,-1.73 7.73,2.38 -0.01,2.67 -2.19,4.23 -4.3,4.23 z"
   id="path853"
   style="fill:url(#SVGID_28_)" />
			</g>
			<g
   id="g878">
				<linearGradient
   id="SVGID_29_"
   gradientUnits="userSpaceOnUse"
   x1="1498.7648"
   y1="-8.0604"
   x2="1119.4904"
   y2="368.58069">
					<stop
   offset="0"
   style="stop-color:#FFFFFF"
   id="stop857" />
					<stop
   offset="5.061304e-03"
   style="stop-color:#FBFDFE"
   id="stop859" />
					<stop
   offset="0.0914"
   style="stop-color:#C0DEF1"
   id="stop861" />
					<stop
   offset="0.1746"
   style="stop-color:#8FC4E6"
   id="stop863" />
					<stop
   offset="0.2527"
   style="stop-color:#69B0DE"
   id="stop865" />
					<stop
   offset="0.3245"
   style="stop-color:#4EA2D8"
   id="stop867" />
					<stop
   offset="0.3876"
   style="stop-color:#3D99D4"
   id="stop869" />
					<stop
   offset="0.4355"
   style="stop-color:#3796D3"
   id="stop871" />
					<stop
   offset="1"
   style="stop-color:#342E7E"
   id="stop873" />
				</linearGradient>
				<path
   class="st33"
   d="m 1083,243.08 c 1.1,-5.31 2.74,-10.51 4.88,-15.49 h 90.39 c 0,0 62.41,-42.6 73.94,-50.47 h 75.53 c 5.01,14.72 26.85,11.09 26.85,-4.44 0,-15.52 -21.83,-19.17 -26.85,-4.44 h -78.27 c 0,0 -59.49,40.6 -73.94,50.46 h -83.18 c 4.27,-7.29 9.63,-13.84 15.97,-19.5 h 44.61 c 5.01,14.71 26.85,11.09 26.85,-4.44 0,-15.52 -21.84,-19.17 -26.85,-4.44 h -32.62 c 13.66,-8.27 27.88,-11.65 43.39,-11.65 -2.48,-57.5 42.31,-99.16 93.51,-99.16 34.28,0 67.07,18.18 84.54,53.31 60.17,-35.54 131.7,2.34 141.29,65.46 h -110.5 c -4.16,-12.48 -21.92,-12.47 -26.07,0 h -95.1 l -63.3,44.8 z"
   id="path876"
   style="fill:url(#SVGID_29_)" />
			</g>
			<g
   id="g901">
				<linearGradient
   id="SVGID_30_"
   gradientUnits="userSpaceOnUse"
   x1="1434.1769"
   y1="-71.586998"
   x2="1055.9659"
   y2="303.99799">
					<stop
   offset="0"
   style="stop-color:#FFFFFF"
   id="stop880" />
					<stop
   offset="5.061304e-03"
   style="stop-color:#FBFDFE"
   id="stop882" />
					<stop
   offset="0.0914"
   style="stop-color:#C0DEF1"
   id="stop884" />
					<stop
   offset="0.1746"
   style="stop-color:#8FC4E6"
   id="stop886" />
					<stop
   offset="0.2527"
   style="stop-color:#69B0DE"
   id="stop888" />
					<stop
   offset="0.3245"
   style="stop-color:#4EA2D8"
   id="stop890" />
					<stop
   offset="0.3876"
   style="stop-color:#3D99D4"
   id="stop892" />
					<stop
   offset="0.4355"
   style="stop-color:#3796D3"
   id="stop894" />
					<stop
   offset="1"
   style="stop-color:#342E7E"
   id="stop896" />
				</linearGradient>
				<path
   class="st34"
   d="m 1162.46,192.38 c 2.36,-3.45 7.73,-1.74 7.73,2.38 0,1.55 -0.72,2.53 -1.32,3.08 -3.79,3.47 -9.21,-1.36 -6.41,-5.46 z"
   id="path899"
   style="fill:url(#SVGID_30_)" />
			</g>
			<g
   id="g924">
				<linearGradient
   id="SVGID_31_"
   gradientUnits="userSpaceOnUse"
   x1="1584.7034"
   y1="76.759499"
   x2="1204.0046"
   y2="454.81491">
					<stop
   offset="0"
   style="stop-color:#FFFFFF"
   id="stop903" />
					<stop
   offset="5.061304e-03"
   style="stop-color:#FBFDFE"
   id="stop905" />
					<stop
   offset="0.0914"
   style="stop-color:#C0DEF1"
   id="stop907" />
					<stop
   offset="0.1746"
   style="stop-color:#8FC4E6"
   id="stop909" />
					<stop
   offset="0.2527"
   style="stop-color:#69B0DE"
   id="stop911" />
					<stop
   offset="0.3245"
   style="stop-color:#4EA2D8"
   id="stop913" />
					<stop
   offset="0.3876"
   style="stop-color:#3D99D4"
   id="stop915" />
					<stop
   offset="0.4355"
   style="stop-color:#3796D3"
   id="stop917" />
					<stop
   offset="1"
   style="stop-color:#342E7E"
   id="stop919" />
				</linearGradient>
				<path
   class="st35"
   d="m 1342.68,312.87 c 0,-2.33 1.88,-4.23 4.19,-4.23 2.54,0 4.69,2.13 4.18,4.97 -0.91,5.15 -8.37,4.34 -8.37,-0.74 z"
   id="path922"
   style="fill:url(#SVGID_31_)" />
			</g>
			<g
   id="g947">
				<linearGradient
   id="SVGID_32_"
   gradientUnits="userSpaceOnUse"
   x1="1473.9755"
   y1="-36.5784"
   x2="1092.5092"
   y2="342.23929">
					<stop
   offset="0"
   style="stop-color:#FFFFFF"
   id="stop926" />
					<stop
   offset="5.061304e-03"
   style="stop-color:#FBFDFE"
   id="stop928" />
					<stop
   offset="0.0914"
   style="stop-color:#C0DEF1"
   id="stop930" />
					<stop
   offset="0.1746"
   style="stop-color:#8FC4E6"
   id="stop932" />
					<stop
   offset="0.2527"
   style="stop-color:#69B0DE"
   id="stop934" />
					<stop
   offset="0.3245"
   style="stop-color:#4EA2D8"
   id="stop936" />
					<stop
   offset="0.3876"
   style="stop-color:#3D99D4"
   id="stop938" />
					<stop
   offset="0.4355"
   style="stop-color:#3796D3"
   id="stop940" />
					<stop
   offset="1"
   style="stop-color:#342E7E"
   id="stop942" />
				</linearGradient>
				<path
   class="st36"
   d="m 1161.02,278.53 c -5.71,0 -5.72,-8.46 0,-8.46 1.4,0 2.62,0.66 3.43,1.85 1.92,2.81 -0.12,6.61 -3.43,6.61 z"
   id="path945"
   style="fill:url(#SVGID_32_)" />
			</g>
			<g
   id="g970">
				<linearGradient
   id="SVGID_33_"
   gradientUnits="userSpaceOnUse"
   x1="1578.1241"
   y1="71.993599"
   x2="1198.9554"
   y2="448.52969">
					<stop
   offset="0"
   style="stop-color:#FFFFFF"
   id="stop949" />
					<stop
   offset="5.061304e-03"
   style="stop-color:#FBFDFE"
   id="stop951" />
					<stop
   offset="0.0914"
   style="stop-color:#C0DEF1"
   id="stop953" />
					<stop
   offset="0.1746"
   style="stop-color:#8FC4E6"
   id="stop955" />
					<stop
   offset="0.2527"
   style="stop-color:#69B0DE"
   id="stop957" />
					<stop
   offset="0.3245"
   style="stop-color:#4EA2D8"
   id="stop959" />
					<stop
   offset="0.3876"
   style="stop-color:#3D99D4"
   id="stop961" />
					<stop
   offset="0.4355"
   style="stop-color:#3796D3"
   id="stop963" />
					<stop
   offset="1"
   style="stop-color:#342E7E"
   id="stop965" />
				</linearGradient>
				<path
   class="st37"
   d="m 1417.63,235.6 c -2.33,0 -4.23,-1.9 -4.23,-4.23 0,-2.33 1.9,-4.23 4.23,-4.23 2.33,0 4.23,1.9 4.23,4.23 0.01,2.33 -1.89,4.23 -4.23,4.23 z"
   id="path968"
   style="fill:url(#SVGID_33_)" />
			</g>
			<g
   id="g993">
				<linearGradient
   id="SVGID_34_"
   gradientUnits="userSpaceOnUse"
   x1="1546.9772"
   y1="40.5854"
   x2="1167.7579"
   y2="417.1716">
					<stop
   offset="0"
   style="stop-color:#FFFFFF"
   id="stop972" />
					<stop
   offset="5.061304e-03"
   style="stop-color:#FBFDFE"
   id="stop974" />
					<stop
   offset="0.0914"
   style="stop-color:#C0DEF1"
   id="stop976" />
					<stop
   offset="0.1746"
   style="stop-color:#8FC4E6"
   id="stop978" />
					<stop
   offset="0.2527"
   style="stop-color:#69B0DE"
   id="stop980" />
					<stop
   offset="0.3245"
   style="stop-color:#4EA2D8"
   id="stop982" />
					<stop
   offset="0.3876"
   style="stop-color:#3D99D4"
   id="stop984" />
					<stop
   offset="0.4355"
   style="stop-color:#3796D3"
   id="stop986" />
					<stop
   offset="1"
   style="stop-color:#342E7E"
   id="stop988" />
				</linearGradient>
				<path
   class="st38"
   d="m 1126.77,332.17 c -30.19,-14.7 -48.2,-46.79 -45.11,-80.21 h 109.23 l 63.3,-44.8 h 92.27 c 4.15,12.46 21.92,12.49 26.07,0 h 111.43 c 0.17,2.67 0.18,3.93 0.2,5.24 9.33,3.14 17.5,7.49 25.23,14.52 h -78.72 c -4.16,-12.48 -21.92,-12.47 -26.07,0 h -140.4 l -60.75,42.93 H 1174 c -5.01,-14.72 -26.84,-11.09 -26.84,4.44 0,15.54 21.84,19.15 26.84,4.44 h 32.28 l 60.75,-42.93 h 137.58 c 4.16,12.48 21.92,12.47 26.07,0 h 86.89 c 4.35,5.69 7.76,12.01 10.17,18.83 h -194.58 l -32.34,24.27 c -9.13,-6.3 -21.56,0.31 -21.56,11.37 0,7.62 6.2,13.81 13.81,13.81 9.38,0 16.05,-9.21 13.12,-18.1 l 29.93,-22.47 h 194.13 c 1.14,5.42 1.63,10.99 1.46,16.6 h -146.33 l -30.41,21.59 c -9.11,-6.67 -21.86,-0.03 -21.86,11.16 0,13.48 17.51,18.99 25.21,7.8 2.4,-3.48 3.04,-7.7 1.82,-11.73 1.98,-1.4 8.45,-6 28.08,-19.93 h 142.65 c -2.75,17.14 -11.88,32.41 -25.83,43.17 z"
   id="path991"
   style="fill:url(#SVGID_34_)" />
			</g>
			<g
   id="g1016">
				<linearGradient
   id="SVGID_35_"
   gradientUnits="userSpaceOnUse"
   x1="1534.2892"
   y1="29.1348"
   x2="1156.4773"
   y2="404.32361">
					<stop
   offset="0"
   style="stop-color:#FFFFFF"
   id="stop995" />
					<stop
   offset="5.061304e-03"
   style="stop-color:#FBFDFE"
   id="stop997" />
					<stop
   offset="0.0914"
   style="stop-color:#C0DEF1"
   id="stop999" />
					<stop
   offset="0.1746"
   style="stop-color:#8FC4E6"
   id="stop1001" />
					<stop
   offset="0.2527"
   style="stop-color:#69B0DE"
   id="stop1003" />
					<stop
   offset="0.3245"
   style="stop-color:#4EA2D8"
   id="stop1005" />
					<stop
   offset="0.3876"
   style="stop-color:#3D99D4"
   id="stop1007" />
					<stop
   offset="0.4355"
   style="stop-color:#3796D3"
   id="stop1009" />
					<stop
   offset="1"
   style="stop-color:#342E7E"
   id="stop1011" />
				</linearGradient>
				<path
   class="st39"
   d="m 1359.5,206.95 c -3.38,0 -5.42,-3.79 -3.49,-6.62 3.18,-4.65 10.12,0.18 6.99,4.77 -0.81,1.18 -2.08,1.85 -3.5,1.85 z"
   id="path1014"
   style="fill:url(#SVGID_35_)" />
			</g>
			<g
   id="g1039">
				<linearGradient
   id="SVGID_36_"
   gradientUnits="userSpaceOnUse"
   x1="1547.433"
   y1="37.646301"
   x2="1165.6511"
   y2="416.77731">
					<stop
   offset="0"
   style="stop-color:#FFFFFF"
   id="stop1018" />
					<stop
   offset="5.061304e-03"
   style="stop-color:#FBFDFE"
   id="stop1020" />
					<stop
   offset="0.0914"
   style="stop-color:#C0DEF1"
   id="stop1022" />
					<stop
   offset="0.1746"
   style="stop-color:#8FC4E6"
   id="stop1024" />
					<stop
   offset="0.2527"
   style="stop-color:#69B0DE"
   id="stop1026" />
					<stop
   offset="0.3245"
   style="stop-color:#4EA2D8"
   id="stop1028" />
					<stop
   offset="0.3876"
   style="stop-color:#3D99D4"
   id="stop1030" />
					<stop
   offset="0.4355"
   style="stop-color:#3796D3"
   id="stop1032" />
					<stop
   offset="1"
   style="stop-color:#342E7E"
   id="stop1034" />
				</linearGradient>
				<path
   class="st40"
   d="m 1288.83,290.28 c 0,-6.08 9.36,-5.28 8.37,0.72 -0.85,5.15 -8.37,4.4 -8.37,-0.72 z"
   id="path1037"
   style="fill:url(#SVGID_36_)" />
			</g>
		</g>
	</g>
</g>
</svg>
